<svg width="329" height="422" viewBox="0 0 329 422" fill="none" xmlns="http://www.w3.org/2000/svg">
<path d="M329 422C329 349.905 320.794 270 164.524 270C8.25468 270 0 349.905 0 422H329Z" fill="url(#paint0_linear)"/>
<path d="M132 192.349L125.573 211.788L108.941 212L83.815 196.527L65.4082 185.216L29 162.829C34.5725 149.367 41.2215 136.382 48.8819 124L86.2466 151.973L80.8161 158.814L91.677 170.63L117.93 199.133L132 192.349Z" fill="#FD8033"/>
<path d="M255 158L233.655 222H122L125.621 211.11L132.074 191.741L143.32 158H255Z" fill="#2D285C"/>
<path d="M212 88.8178L190.398 114.619V158.401H143.174L131.993 192.244L117.948 199L91.7423 170.512L104.339 129.107L86.2812 151.898L49 123.915C65.6341 97.185 89.3475 71.1473 118.085 69.2834V78.1227C126.337 83.5354 137.616 85.4481 147.559 78.1227V64.5626L175.261 56L212 88.8178Z" fill="#FFBE4D"/>
<path d="M243 52.0323L211.957 89L175.419 56.4839L184.212 53.7823L196.697 49.9274L172.459 48.0968L156 40.1371C156 38.9839 156 37.8306 156 36.6774C156 36.2177 156 35.7661 156 35.3065C156 34.8468 156 34.4355 156 34C156 33.0081 156 32.0161 156 31.0403C156.858 31.0327 157.711 30.9052 158.534 30.6613C161.116 29.8548 163.015 27.4839 164.101 22L243 52.0323Z" fill="#FD8033"/>
<path d="M148 66.602V78.2747C137.879 85.4786 126.4 83.6021 118 78.2747V63C121.162 67.2858 126.235 70.1085 134.47 70.1085C140.432 70.1085 144.813 68.8125 148 66.602Z" fill="#FD8033"/>
<path d="M156 36.0677C156 37.241 156 38.4144 156 39.5877C155.965 43.2895 155.562 46.9785 154.795 50.599C153.687 55.4728 151.586 59.6246 147.75 62.3815C144.607 64.6626 140.275 66 134.33 66C126.267 66 121.218 63.0872 118.042 58.6646C116.85 56.9632 115.907 55.098 115.241 53.1262C115.224 53.0921 115.21 53.0563 115.2 53.0195C115.2 52.9046 115.119 52.7815 115.078 52.6421C113.976 49.0318 113.328 45.2967 113.148 41.5241C113.15 41.4968 113.15 41.4694 113.148 41.4421C113.148 40.8349 113.091 40.2523 113.066 39.6451C113.066 39.4646 113.066 39.2595 113.066 39.079C113.009 37.5774 112.985 36.1415 113.009 34.7138C113.009 33.1303 113.05 31.5795 113.091 30.1026C113.905 30.4226 114.72 30.7097 115.534 30.9231C130.013 35.4769 135.551 26 143.955 26C150.234 26 153.728 27.4195 155.609 29.1754L155.976 29.5364C155.976 29.7826 155.976 30.0205 155.976 30.2667C155.976 31.2595 155.976 32.2687 155.976 33.2779C155.976 33.721 155.976 34.1641 155.976 34.6072C155.976 35.0503 156 35.6 156 36.0677Z" fill="#FD8033"/>
<path d="M148 62.6006V66.5025C144.817 68.7073 140.442 70 134.447 70C126.306 70 121.199 67.1846 118 62.9099V59C121.158 63.2826 126.224 66.0901 134.447 66.0901C140.442 66.0901 144.817 64.8053 148 62.6006Z" fill="#2D285C"/>
<path d="M115 53C110.006 51.2016 108.419 45.7657 111.772 41C112.198 41.353 112.656 41.6624 113.139 41.9237C113.313 45.6822 113.938 49.4033 115 53Z" fill="#FD8033"/>
<path d="M125 211.161L121.449 222H76L83.8607 196L108.648 211.338L125 211.161Z" fill="#FFBE4D"/>
<path d="M192 422H126V379H177.125V401.931L192 422Z" fill="#2D285C"/>
<path d="M319 422H252V379H303.892V401.931L319 422Z" fill="#2D285C"/>
<path d="M307 366H246.117L196.136 271.2C193.468 270.964 190.742 270.785 188 270.622L188.984 258.458L191.905 222H244.709L277.034 293.637L307 366Z" fill="#2D285C"/>
<path d="M192 222L189.356 258.458L188.464 270.622L182.159 366H127.892L127.848 293.458L117.727 301.923H73L73.4567 288.7L75.6886 222H192Z" fill="#FD8033"/>
<path d="M164.983 7.31661C165.084 12.1325 164.737 16.9473 163.948 21.6981C162.848 27.2357 160.94 29.6055 158.345 30.4443C157.518 30.6905 156.661 30.8194 155.798 30.827C155.798 30.5827 155.798 30.3466 155.798 30.1023L155.435 29.7439C153.567 28.0012 150.099 26.5924 143.865 26.5924C135.521 26.5924 130.032 35.9656 115.649 31.4785C114.84 31.2424 114.08 30.9573 113.223 30.6642C113.223 32.13 113.158 33.6692 113.142 35.2409C113.142 36.6578 113.142 38.0829 113.199 39.5732C113.199 39.7524 113.199 39.956 113.199 40.1351C113.199 40.7377 113.264 41.3159 113.28 41.9186C113.283 41.9456 113.283 41.973 113.28 42C112.779 41.7417 112.305 41.4334 111.865 41.0798C102.664 33.7506 99.794 3.83116 122.076 6.73841C141.957 -12.5292 159.146 16.6084 164.983 7.31661Z" fill="#2D285C"/>
<defs>
<linearGradient id="paint0_linear" x1="-2.6969e-06" y1="422" x2="309.519" y2="237.346" gradientUnits="userSpaceOnUse">
<stop stop-color="#FD8033"/>
<stop offset="1" stop-color="#FB3552"/>
</linearGradient>
</defs>
</svg>
