<svg width="82" height="82" viewBox="0 0 82 82" fill="none" xmlns="http://www.w3.org/2000/svg">
<rect width="82" height="82" fill="#FE5854"/>
<path d="M32.08 34.84H28V33.22C29.36 32.86 30.78 32.2 32.26 31.24C33.74 30.24 35.14 29.1 36.46 27.82C37.82 26.5 38.94 25.22 39.82 23.98C40.74 22.74 41.44 21.62 41.92 20.62H43.6V32.56H51.46L50.62 34.84H43.6V51.16L43.72 54.22C43.72 55.94 44.1 57.24 44.86 58.12C45.62 59 46.58 59.44 47.74 59.44C49.3 59.44 50.44 58.8 51.16 57.52C51.88 56.2 52.24 54.74 52.24 53.14H53.08C53.08 55.38 52.42 57.36 51.1 59.08C49.78 60.76 46.94 61.6 42.58 61.6C39.82 61.6 37.38 60.88 35.26 59.44C33.14 58 32.08 55.98 32.08 53.38V34.84Z" fill="white"/>
</svg>
