<svg width="82" height="82" viewBox="0 0 82 82" fill="none" xmlns="http://www.w3.org/2000/svg">
<rect width="82" height="82" fill="#FE5854"/>
<path d="M29 42.68C31.24 38.68 33.18 36.06 34.82 34.82C36.5 33.58 38.32 32.96 40.28 32.96C42.04 32.96 43.56 33.56 44.84 34.76C46.16 35.92 46.82 37.68 46.82 40.04C46.82 41.08 46.58 42.26 46.1 43.58C45.62 44.9 44.96 46.44 44.12 48.2C43.28 49.92 42.12 52.1 40.64 54.74C39.16 57.34 38.42 59.02 38.42 59.78C38.42 60.14 38.5 60.42 38.66 60.62C38.86 60.78 39.14 60.86 39.5 60.86C39.94 60.86 40.52 60.62 41.24 60.14C41.96 59.62 42.66 58.94 43.34 58.1C44.02 57.26 44.72 56.3 45.44 55.22C46.2 54.1 46.82 53.1 47.3 52.22L48.08 52.64C45.92 56.16 44.1 58.7 42.62 60.26C41.18 61.82 38.98 62.6 36.02 62.6C33.86 62.6 32.22 61.98 31.1 60.74C29.98 59.46 29.42 57.86 29.42 55.94C29.42 54.66 29.6 53.52 29.96 52.52C30.36 51.48 31.16 49.76 32.36 47.36C33.6 44.96 34.68 42.82 35.6 40.94C36.52 39.06 37.12 37.78 37.4 37.1C37.68 36.42 37.82 35.92 37.82 35.6C37.82 35.32 37.74 35.12 37.58 35C37.46 34.84 37.26 34.76 36.98 34.76C36.7 34.76 36.22 35.02 35.54 35.54C34.9 36.02 34.04 36.9 32.96 38.18C31.92 39.42 30.86 41.04 29.78 43.04L29 42.68ZM41.24 23.24C41.24 21.6 41.8 20.26 42.92 19.22C44.04 18.18 45.38 17.66 46.94 17.66C48.54 17.66 49.9 18.18 51.02 19.22C52.14 20.26 52.7 21.6 52.7 23.24C52.7 24.84 52.12 26.18 50.96 27.26C49.84 28.3 48.5 28.82 46.94 28.82C45.34 28.82 43.98 28.3 42.86 27.26C41.78 26.18 41.24 24.84 41.24 23.24Z" fill="white"/>
</svg>
