<svg width="82" height="82" viewBox="0 0 82 82" fill="none" xmlns="http://www.w3.org/2000/svg">
<rect width="82" height="82" fill="#FE5854"/>
<path d="M44.24 37.24C45.92 36.92 47.04 35.94 47.6 34.3C48.16 32.66 48.44 30.5799 48.44 28.0599C48.44 26.0199 48.06 24.06 47.3 22.18C46.58 20.2599 45.66 19.16 44.54 18.88C43.46 18.6 42.44 18.4399 41.48 18.4C40.56 18.36 39.74 18.32 39.02 18.28V37.66C39.78 37.66 40.54 37.66 41.3 37.66C42.1 37.62 43.08 37.48 44.24 37.24ZM46.4 61.06L17.06 61V60.04H18.92C19.76 59.92 20.58 59.82 21.38 59.74C22.18 59.62 22.8 59.32 23.24 58.84C23.72 58.32 24.02 57.42 24.14 56.14L24.26 53.38V24.94L24.14 22.18C24.02 20.9 23.72 20 23.24 19.4799C22.76 18.9599 22.08 18.64 21.2 18.52C20.36 18.4 19.58 18.34 18.86 18.34C18.18 18.3 17.56 18.26 17 18.2199V17.26L44.72 17.2C48.48 17.2 51.42 17.34 53.54 17.6199C55.66 17.9 57.42 18.52 58.82 19.4799C60.26 20.4399 61.38 21.6399 62.18 23.08C62.98 24.48 63.38 26.16 63.38 28.1199C63.38 31.0399 62.52 33.14 60.8 34.42C59.12 35.7 57.42 36.56 55.7 37C54.02 37.4 51.94 37.6 49.46 37.6V38.08C52.38 38.08 54.56 38.2 56 38.44C57.48 38.64 58.94 39.04 60.38 39.64C61.86 40.24 63.16 41.38 64.28 43.0599C65.4 44.7 65.96 46.82 65.96 49.42C65.96 51.94 65.38 54.04 64.22 55.72C63.06 57.4 61.58 58.66 59.78 59.5C57.98 60.3 55.78 60.76 53.18 60.88C50.58 61 48.32 61.06 46.4 61.06ZM46.46 59.32C47.78 59 48.72 57.74 49.28 55.54C49.88 53.34 50.18 51.04 50.18 48.64C50.18 46.48 49.72 44.38 48.8 42.34C47.92 40.26 46.84 39.14 45.56 38.98C44.28 38.82 43.28 38.74 42.56 38.74C41.88 38.7 41.36 38.68 41 38.68H39.02V59.92H39.74C41.18 59.92 42.38 59.9 43.34 59.86C44.3 59.78 45.34 59.6 46.46 59.32Z" fill="white"/>
</svg>
