<svg width="82" height="82" viewBox="0 0 82 82" fill="none" xmlns="http://www.w3.org/2000/svg">
<rect width="82" height="82" fill="#FE5854"/>
<path d="M29 48.58H29.78C30.82 51.82 31.86 54.2 32.9 55.72C33.94 57.24 35.06 58.38 36.26 59.14C37.5 59.9 39 60.28 40.76 60.28C41.76 60.28 42.62 60.02 43.34 59.5C44.06 58.94 44.42 58.18 44.42 57.22C44.42 55.98 44.14 55.06 43.58 54.46C43.02 53.86 42.14 53.22 40.94 52.54C39.74 51.82 38.34 51.04 36.74 50.2C35.18 49.32 33.86 48.48 32.78 47.68C31.74 46.84 30.92 45.9 30.32 44.86C29.76 43.82 29.48 42.62 29.48 41.26C29.48 38.3 30.6 36.02 32.84 34.42C35.08 32.78 37.82 31.96 41.06 31.96C42.58 31.96 44.02 32.24 45.38 32.8C46.7 33.48 48.04 34.14 49.4 34.78C49.96 34.78 50.44 34.44 50.84 33.76C51.24 33.08 51.44 32.28 51.44 31.36H52.28V43.42H51.5C51.18 42.46 50.78 41.4 50.3 40.24C49.82 39.08 49.12 37.92 48.2 36.76C47.32 35.56 46.38 34.64 45.38 34C44.38 33.36 43.1 33.04 41.54 33.04C40.42 33.04 39.5 33.32 38.78 33.88C38.1 34.4 37.76 35.06 37.76 35.86C37.76 36.78 38 37.5 38.48 38.02C39 38.54 39.74 39.1 40.7 39.7C41.66 40.26 42.96 41 44.6 41.92C46.28 42.8 47.78 43.68 49.1 44.56C50.42 45.44 51.52 46.54 52.4 47.86C53.28 49.14 53.72 50.62 53.72 52.3C53.72 55.38 52.54 57.7 50.18 59.26C47.86 60.82 45.04 61.6 41.72 61.6C40 61.6 38.32 61.24 36.68 60.52C35.08 59.72 33.5 58.9 31.94 58.06C31.42 58.06 30.96 58.48 30.56 59.32C30.16 60.16 29.92 61.06 29.84 62.02H29V48.58Z" fill="white"/>
</svg>
