<svg width="82" height="82" viewBox="0 0 82 82" fill="none" xmlns="http://www.w3.org/2000/svg">
<rect width="82" height="82" fill="#FE5854"/>
<path d="M47.8 25.78C47.8 28.18 46.72 31.36 44.56 35.32C42.4 39.24 41.32 43.56 41.32 48.28H40.42C40.42 43.92 39.34 39.38 37.18 34.66C35.06 29.94 34 26.94 34 25.66C34 23.46 34.74 21.42 36.22 19.54C37.74 17.62 39.32 16.66 40.96 16.66C42.52 16.66 44.04 17.6 45.52 19.48C47.04 21.32 47.8 23.42 47.8 25.78ZM46.78 55.66C46.78 57.26 46.2 58.62 45.04 59.74C43.92 60.82 42.54 61.36 40.9 61.36C39.3 61.36 37.92 60.82 36.76 59.74C35.64 58.62 35.08 57.26 35.08 55.66C35.08 54.1 35.64 52.78 36.76 51.7C37.92 50.58 39.3 50.02 40.9 50.02C42.54 50.02 43.92 50.56 45.04 51.64C46.2 52.68 46.78 54.02 46.78 55.66Z" fill="white"/>
</svg>
