<svg width="176" height="593" viewBox="0 0 176 593" fill="none" xmlns="http://www.w3.org/2000/svg">
<path fill-rule="evenodd" clip-rule="evenodd" d="M92.279 535.161C92.2522 535.185 91.997 534.927 91.5985 534.474C91.2 534.022 90.9448 533.764 90.918 533.788C90.8935 533.809 90.7556 533.689 90.5962 533.508C90.4368 533.327 90.2988 533.208 90.2744 533.229C90.2505 533.25 90.1252 533.146 89.9924 532.995C89.8596 532.844 89.7342 532.74 89.7104 532.761C89.6868 532.782 89.5779 532.697 89.4683 532.573C89.3587 532.448 89.2497 532.363 89.2262 532.384C89.2026 532.405 89.1116 532.34 89.0239 532.241C88.9362 532.141 88.8452 532.076 88.8216 532.097C88.798 532.118 88.707 532.053 88.6193 531.954C88.5317 531.854 88.4407 531.79 88.4171 531.81C88.3935 531.831 88.3204 531.787 88.2547 531.712C88.1889 531.638 88.1158 531.593 88.0922 531.614C88.0687 531.635 87.9956 531.591 87.9298 531.516C87.8641 531.441 87.791 531.397 87.7674 531.418C87.7438 531.439 87.6707 531.395 87.605 531.32C87.5392 531.245 87.4661 531.201 87.4426 531.222C87.419 531.242 87.3459 531.198 87.2801 531.124C87.2144 531.049 87.1413 531.005 87.1177 531.025C87.0941 531.046 87.039 531.022 86.9951 530.973C86.9513 530.923 86.8961 530.899 86.8726 530.92C86.849 530.941 86.7759 530.896 86.7102 530.822C86.6444 530.747 86.5713 530.703 86.5477 530.724C86.5242 530.744 86.469 530.721 86.4252 530.671C86.3813 530.621 86.3262 530.597 86.3026 530.618C86.279 530.639 86.2239 530.615 86.18 530.565C86.1362 530.515 86.081 530.492 86.0575 530.512C86.0339 530.533 85.9608 530.489 85.895 530.414C85.8293 530.339 85.7562 530.295 85.7326 530.316C85.709 530.337 85.6539 530.313 85.61 530.263C85.5662 530.213 85.511 530.19 85.4875 530.21C85.4639 530.231 85.4087 530.207 85.3649 530.158C85.3211 530.108 85.2659 530.084 85.2423 530.105C85.2188 530.125 85.1636 530.102 85.1198 530.052C85.0759 530.002 85.0208 529.978 84.9972 529.999C84.9736 530.02 84.9224 530.001 84.8834 529.956C84.8444 529.912 84.7481 529.88 84.6693 529.886C84.5906 529.891 84.4942 529.86 84.4552 529.815C84.4163 529.771 84.365 529.752 84.3415 529.773C84.3179 529.793 84.2627 529.77 84.2189 529.72C84.1751 529.67 84.1199 529.646 84.0963 529.667C84.0728 529.688 84.0215 529.668 83.9826 529.624C83.9436 529.58 83.8472 529.548 83.7685 529.554C83.6897 529.559 83.5934 529.528 83.5544 529.483C83.5154 529.439 83.4642 529.42 83.4406 529.441C83.417 529.461 83.3691 529.446 83.334 529.406C83.299 529.366 83.1622 529.327 83.03 529.32C82.8979 529.312 82.765 529.278 82.7349 529.244C82.7046 529.209 82.6155 529.186 82.5367 529.191C82.458 529.197 82.3688 529.174 82.3386 529.139C82.3085 529.105 82.1756 529.071 82.0434 529.063C81.9113 529.056 81.7817 529.025 81.7554 528.995C81.7292 528.965 81.5996 528.935 81.4674 528.927C81.3353 528.92 81.2066 528.89 81.1815 528.862C81.1563 528.833 80.8769 528.788 80.5605 528.761C80.2442 528.735 79.9664 528.691 79.9431 528.665C79.8878 528.602 78.1795 528.446 78.1199 528.499C78.0948 528.521 77.853 528.517 77.5826 528.489C77.3123 528.462 77.0692 528.459 77.0425 528.483C77.0157 528.506 76.848 528.509 76.6697 528.489C76.4914 528.47 76.3229 528.473 76.2951 528.498C76.2673 528.522 76.1368 528.529 76.0049 528.512C75.8731 528.495 75.7387 528.505 75.7062 528.534C75.6737 528.562 75.5834 528.57 75.5056 528.55C75.4278 528.53 75.334 528.54 75.2973 528.572C75.2606 528.605 75.1668 528.615 75.089 528.595C75.0112 528.575 74.9174 528.585 74.8807 528.618C74.844 528.65 74.7502 528.66 74.6724 528.64C74.5946 528.62 74.5008 528.63 74.4641 528.663C74.4273 528.695 74.3336 528.705 74.2558 528.685C74.1779 528.666 74.08 528.679 74.038 528.716C73.9961 528.753 73.9438 528.763 73.9219 528.738C73.9 528.713 73.8435 528.727 73.7963 528.768C73.7491 528.81 73.6926 528.823 73.6707 528.799C73.6488 528.774 73.5965 528.784 73.5546 528.82C73.5126 528.857 73.4146 528.871 73.3368 528.851C73.259 528.832 73.161 528.845 73.119 528.882C73.0771 528.919 73.0248 528.929 73.0029 528.904C72.981 528.879 72.9245 528.893 72.8773 528.934C72.8302 528.976 72.7737 528.989 72.7517 528.965C72.7298 528.94 72.6733 528.953 72.6262 528.995C72.579 529.036 72.5225 529.05 72.5006 529.025C72.4787 529 72.4221 529.014 72.375 529.055C72.3278 529.097 72.2713 529.11 72.2494 529.085C72.2275 529.06 72.171 529.074 72.1238 529.115C72.0767 529.157 72.0201 529.171 71.9982 529.146C71.9763 529.121 71.9198 529.134 71.8726 529.176C71.8255 529.217 71.769 529.231 71.747 529.206C71.7251 529.181 71.6686 529.195 71.6215 529.236C71.5743 529.278 71.5178 529.291 71.4959 529.266C71.474 529.241 71.3982 529.272 71.3274 529.334C71.2567 529.396 71.1809 529.427 71.159 529.402C71.137 529.377 71.0805 529.391 71.0334 529.432C70.9862 529.474 70.9297 529.487 70.9078 529.462C70.8859 529.438 70.8101 529.468 70.7393 529.53C70.6686 529.593 70.5928 529.623 70.5709 529.598C70.549 529.573 70.4924 529.587 70.4453 529.628C70.3981 529.67 70.3416 529.684 70.3197 529.659C70.2978 529.634 70.222 529.664 70.1512 529.727C70.0805 529.789 70.0047 529.819 69.9828 529.794C69.9609 529.77 69.8851 529.8 69.8143 529.862C69.7436 529.925 69.6678 529.955 69.6459 529.93C69.624 529.905 69.5482 529.936 69.4774 529.998C69.4067 530.06 69.3309 530.091 69.309 530.066C69.2871 530.041 69.2112 530.072 69.1405 530.134C69.0698 530.196 68.994 530.227 68.9721 530.202C68.9501 530.177 68.8743 530.208 68.8036 530.27C68.7329 530.332 68.6571 530.363 68.6351 530.338C68.6132 530.313 68.5181 530.36 68.4238 530.443C68.3295 530.526 68.2344 530.574 68.2125 530.549C68.1906 530.524 68.0955 530.572 68.0012 530.655C67.9069 530.738 67.8118 530.785 67.7899 530.76C67.7679 530.735 67.6728 530.783 67.5785 530.866C67.4842 530.949 67.3891 530.996 67.3672 530.972C67.3453 530.947 67.2309 531.011 67.113 531.115C66.9951 531.219 66.8807 531.283 66.8588 531.258C66.8367 531.233 66.7046 531.314 66.5618 531.439C66.4189 531.565 66.2869 531.646 66.2647 531.62C66.2419 531.595 66.0962 531.688 65.9248 531.839C65.7533 531.99 65.6076 532.084 65.5848 532.058C65.5607 532.031 65.3592 532.176 65.0734 532.428C64.7876 532.679 64.5862 532.825 64.562 532.798C64.5356 532.768 61.8072 535.142 56.463 539.845C51.1187 544.549 48.4172 546.954 48.4436 546.984C48.4675 547.011 48.312 547.18 48.0547 547.406C47.7975 547.632 47.642 547.802 47.6659 547.829C47.6891 547.855 47.5629 548 47.3628 548.176C47.1628 548.352 47.0365 548.497 47.0597 548.523C47.0816 548.548 47.0031 548.653 46.8852 548.757C46.7673 548.861 46.6888 548.966 46.7107 548.991C46.7327 549.016 46.6541 549.121 46.5363 549.225C46.4184 549.328 46.3398 549.434 46.3618 549.459C46.3837 549.483 46.3052 549.589 46.1873 549.693C46.0694 549.796 45.9909 549.902 46.0128 549.926C46.0347 549.951 45.9948 550.023 45.924 550.085C45.8533 550.147 45.8134 550.218 45.8353 550.243C45.8572 550.268 45.798 550.357 45.7037 550.44C45.6093 550.523 45.5501 550.611 45.572 550.636C45.5939 550.661 45.5347 550.749 45.4404 550.832C45.3461 550.915 45.2869 551.003 45.3088 551.028C45.3307 551.053 45.2908 551.124 45.22 551.187C45.1493 551.249 45.1094 551.32 45.1313 551.345C45.1532 551.37 45.1133 551.441 45.0425 551.504C44.9718 551.566 44.9319 551.637 44.9538 551.662C44.9757 551.687 44.9357 551.758 44.865 551.82C44.7943 551.883 44.7543 551.954 44.7763 551.979C44.7982 552.004 44.7775 552.058 44.7304 552.1C44.6832 552.141 44.6626 552.196 44.6845 552.22C44.7064 552.245 44.6665 552.317 44.5957 552.379C44.525 552.441 44.4851 552.512 44.507 552.537C44.5289 552.562 44.5083 552.617 44.4611 552.658C44.4139 552.7 44.3933 552.754 44.4152 552.779C44.4371 552.804 44.3972 552.875 44.3265 552.937C44.2557 553 44.2158 553.071 44.2377 553.096C44.2596 553.121 44.239 553.175 44.1918 553.216C44.1447 553.258 44.124 553.312 44.1459 553.337C44.1678 553.362 44.1472 553.416 44.1 553.458C44.0529 553.499 44.0322 553.554 44.0542 553.579C44.0761 553.604 44.0554 553.658 44.0083 553.699C43.9611 553.741 43.9405 553.795 43.9624 553.82C43.9843 553.845 43.9637 553.899 43.9165 553.941C43.8693 553.982 43.8487 554.037 43.8706 554.062C43.8925 554.087 43.8719 554.141 43.8247 554.182C43.7776 554.224 43.7569 554.278 43.7788 554.303C43.8008 554.328 43.7801 554.382 43.733 554.424C43.6858 554.465 43.6652 554.52 43.6871 554.545C43.709 554.569 43.6883 554.624 43.6412 554.665C43.594 554.707 43.5734 554.761 43.5953 554.786C43.6172 554.811 43.5966 554.865 43.5494 554.907C43.5023 554.948 43.4816 555.003 43.5035 555.028C43.5254 555.052 43.5048 555.107 43.4576 555.148C43.4105 555.19 43.3898 555.244 43.4118 555.269C43.4337 555.294 43.4173 555.345 43.3753 555.381C43.3334 555.418 43.3071 555.514 43.317 555.593C43.3268 555.673 43.3006 555.769 43.2586 555.806C43.2167 555.842 43.2003 555.893 43.2222 555.918C43.2441 555.943 43.2277 555.993 43.1858 556.03C43.1438 556.067 43.1176 556.163 43.1274 556.242C43.1372 556.322 43.1152 556.414 43.0785 556.446C43.0418 556.479 43.0197 556.57 43.0296 556.65C43.0394 556.73 43.0174 556.821 42.9807 556.854C42.9439 556.886 42.9219 556.978 42.9318 557.057C42.9416 557.137 42.9231 557.226 42.8906 557.254C42.8581 557.283 42.8313 557.415 42.831 557.548C42.8307 557.681 42.8073 557.81 42.779 557.835C42.7508 557.86 42.7274 557.989 42.7271 558.121C42.7268 558.254 42.7038 558.383 42.6761 558.407C42.6483 558.432 42.6232 558.599 42.6203 558.778C42.6173 558.957 42.594 559.122 42.5684 559.145C42.5077 559.198 42.391 562.407 42.4475 562.471C42.4713 562.498 42.4825 562.667 42.4724 562.845C42.4623 563.024 42.4748 563.194 42.5002 563.223C42.5255 563.251 42.538 563.421 42.528 563.6C42.5179 563.779 42.534 563.953 42.5638 563.986C42.5935 564.02 42.6051 564.111 42.5896 564.189C42.574 564.266 42.5892 564.361 42.6234 564.4C42.6575 564.439 42.6727 564.534 42.6572 564.611C42.6416 564.689 42.6569 564.784 42.691 564.822C42.7252 564.861 42.7404 564.956 42.7248 565.034C42.7093 565.111 42.7245 565.206 42.7586 565.245C42.7928 565.284 42.808 565.379 42.7925 565.456C42.7769 565.534 42.7961 565.633 42.8351 565.678C42.8741 565.722 42.8867 565.775 42.8631 565.796C42.8395 565.817 42.8561 565.874 42.8999 565.924C42.9438 565.974 42.9604 566.032 42.9368 566.053C42.9132 566.073 42.9258 566.127 42.9648 566.171C43.0038 566.215 43.023 566.315 43.0074 566.392C42.9919 566.47 43.011 566.569 43.05 566.613C43.089 566.658 43.1017 566.711 43.0781 566.732C43.0545 566.752 43.0711 566.81 43.1149 566.86C43.1587 566.91 43.1753 566.968 43.1517 566.988C43.1282 567.009 43.1447 567.067 43.1886 567.117C43.2324 567.166 43.249 567.224 43.2254 567.245C43.2018 567.266 43.2184 567.323 43.2622 567.373C43.3061 567.423 43.3227 567.481 43.2991 567.501C43.2755 567.522 43.2921 567.58 43.3359 567.63C43.3797 567.68 43.3963 567.737 43.3727 567.758C43.3492 567.779 43.3837 567.857 43.4494 567.932C43.5152 568.006 43.5497 568.084 43.5261 568.105C43.5025 568.126 43.5191 568.184 43.5629 568.233C43.6068 568.283 43.6234 568.341 43.5998 568.362C43.5762 568.382 43.5928 568.44 43.6366 568.49C43.6804 568.54 43.697 568.598 43.6734 568.618C43.6499 568.639 43.6844 568.717 43.7501 568.792C43.8159 568.867 43.8504 568.945 43.8268 568.965C43.8032 568.986 43.8377 569.064 43.9035 569.139C43.9692 569.214 44.0038 569.292 43.9802 569.313C43.9566 569.333 43.9732 569.391 44.017 569.441C44.0608 569.491 44.0774 569.548 44.0538 569.569C44.0303 569.59 44.0827 569.688 44.1704 569.788C44.2581 569.888 44.3105 569.986 44.2869 570.007C44.2633 570.028 44.2978 570.106 44.3636 570.18C44.4294 570.255 44.4639 570.333 44.4403 570.354C44.4167 570.375 44.4512 570.453 44.517 570.528C44.5827 570.602 44.6172 570.68 44.5937 570.701C44.5701 570.722 44.6225 570.82 44.7102 570.92C44.7979 571.02 44.8503 571.118 44.8267 571.139C44.8031 571.16 44.8735 571.278 44.9831 571.403C45.0927 571.527 45.1631 571.646 45.1395 571.667C45.1159 571.688 45.1863 571.807 45.2959 571.931C45.4055 572.056 45.4758 572.175 45.4523 572.195C45.4284 572.216 45.5157 572.354 45.6485 572.505C45.7813 572.656 45.8686 572.793 45.8447 572.814C45.819 572.837 45.9613 573.033 46.2004 573.305C46.4395 573.576 46.5817 573.773 46.556 573.795C46.528 573.82 47.1773 574.588 48.426 576.006C49.6746 577.425 50.3537 578.167 50.3817 578.142C50.4074 578.119 50.584 578.285 50.8231 578.557C51.0622 578.829 51.2387 578.995 51.2645 578.972C51.2883 578.951 51.4136 579.055 51.5464 579.206C51.6792 579.357 51.8046 579.461 51.8284 579.44C51.852 579.419 51.9609 579.504 52.0705 579.629C52.1801 579.753 52.2891 579.838 52.3126 579.817C52.3362 579.797 52.4452 579.881 52.5548 580.006C52.6644 580.131 52.7733 580.215 52.7969 580.195C52.8205 580.174 52.9115 580.238 52.9992 580.338C53.0868 580.438 53.1779 580.502 53.2014 580.481C53.225 580.461 53.2981 580.505 53.3639 580.58C53.4296 580.654 53.5027 580.698 53.5263 580.678C53.5499 580.657 53.6409 580.721 53.7285 580.821C53.8162 580.921 53.9072 580.985 53.9308 580.964C53.9544 580.944 54.0275 580.988 54.0932 581.063C54.159 581.137 54.2321 581.181 54.2557 581.161C54.2792 581.14 54.3344 581.164 54.3782 581.214C54.4221 581.263 54.4772 581.287 54.5008 581.266C54.5244 581.246 54.5975 581.29 54.6632 581.364C54.729 581.439 54.8021 581.483 54.8256 581.463C54.8492 581.442 54.9223 581.486 54.9881 581.561C55.0538 581.635 55.1269 581.68 55.1505 581.659C55.1741 581.638 55.2292 581.662 55.2731 581.712C55.3169 581.761 55.372 581.785 55.3956 581.764C55.4192 581.744 55.4744 581.767 55.5182 581.817C55.562 581.867 55.6172 581.891 55.6408 581.87C55.6643 581.849 55.7374 581.893 55.8032 581.968C55.8689 582.043 55.942 582.087 55.9656 582.066C55.9892 582.046 56.0443 582.069 56.0882 582.119C56.132 582.169 56.1872 582.193 56.2107 582.172C56.2343 582.151 56.2895 582.175 56.3333 582.225C56.3771 582.275 56.4323 582.298 56.4559 582.278C56.4795 582.257 56.5346 582.281 56.5785 582.33C56.6223 582.38 56.6774 582.404 56.701 582.383C56.7246 582.363 56.7798 582.386 56.8236 582.436C56.8674 582.486 56.9226 582.51 56.9462 582.489C56.9697 582.468 57.021 582.487 57.0599 582.532C57.0989 582.576 57.1953 582.608 57.274 582.602C57.3528 582.597 57.4491 582.628 57.4881 582.673C57.5271 582.717 57.5783 582.736 57.6019 582.715C57.6255 582.695 57.6806 582.718 57.7245 582.768C57.7683 582.818 57.8234 582.842 57.847 582.821C57.8706 582.8 57.9218 582.82 57.9608 582.864C57.9998 582.908 58.0961 582.94 58.1749 582.934C58.2536 582.929 58.346 582.956 58.3802 582.995C58.4143 583.033 58.5067 583.061 58.5855 583.055C58.6642 583.049 58.7566 583.077 58.7907 583.115C58.8249 583.154 58.9173 583.181 58.996 583.176C59.0748 583.17 59.1672 583.197 59.2013 583.236C59.2355 583.275 59.3279 583.302 59.4066 583.297C59.4854 583.291 59.5741 583.314 59.6039 583.348C59.6337 583.382 59.8041 583.42 59.9826 583.432C60.1612 583.445 60.328 583.479 60.3534 583.508C60.3787 583.537 60.5455 583.571 60.7241 583.583C60.9026 583.596 61.0681 583.629 61.0919 583.656C61.1481 583.719 64.1803 583.997 64.2406 583.944C64.2659 583.921 64.4702 583.922 64.6946 583.946C64.919 583.969 65.1251 583.969 65.1525 583.945C65.18 583.92 65.3103 583.914 65.4421 583.931C65.5739 583.947 65.7049 583.941 65.7331 583.916C65.7614 583.891 65.8923 583.884 66.0241 583.901C66.156 583.917 66.2904 583.907 66.3229 583.879C66.3554 583.85 66.4456 583.843 66.5235 583.863C66.6013 583.883 66.695 583.873 66.7318 583.84C66.7685 583.808 66.8623 583.798 66.9401 583.818C67.0179 583.838 67.1116 583.827 67.1484 583.795C67.1851 583.763 67.2789 583.753 67.3567 583.772C67.4345 583.792 67.5325 583.778 67.5745 583.741C67.6164 583.705 67.6687 583.695 67.6906 583.72C67.7125 583.744 67.7648 583.735 67.8067 583.698C67.8487 583.661 67.9467 583.647 68.0245 583.667C68.1023 583.687 68.2003 583.673 68.2423 583.636C68.2842 583.599 68.3365 583.589 68.3584 583.614C68.3803 583.639 68.4368 583.625 68.484 583.584C68.5311 583.542 68.5876 583.529 68.6096 583.554C68.6315 583.579 68.688 583.565 68.7351 583.523C68.7823 583.482 68.8388 583.468 68.8607 583.493C68.8826 583.518 68.9392 583.505 68.9863 583.463C69.0335 583.422 69.09 583.408 69.1119 583.433C69.1338 583.458 69.1903 583.444 69.2375 583.403C69.2846 583.361 69.3412 583.348 69.3631 583.373C69.385 583.397 69.4415 583.384 69.4887 583.342C69.5358 583.301 69.5923 583.287 69.6143 583.312C69.6362 583.337 69.6927 583.324 69.7398 583.282C69.787 583.241 69.8435 583.227 69.8654 583.252C69.8873 583.277 69.9439 583.263 69.991 583.222C70.0382 583.18 70.0947 583.167 70.1166 583.191C70.1385 583.216 70.195 583.203 70.2422 583.161C70.2893 583.12 70.3459 583.106 70.3678 583.131C70.3897 583.156 70.4462 583.142 70.4934 583.101C70.5405 583.059 70.597 583.046 70.6189 583.071C70.6409 583.096 70.7167 583.065 70.7874 583.003C70.8581 582.941 70.9339 582.91 70.9559 582.935C70.9778 582.96 71.0343 582.946 71.0814 582.905C71.1286 582.863 71.1851 582.85 71.207 582.875C71.229 582.9 71.3048 582.869 71.3755 582.807C71.4462 582.744 71.522 582.714 71.5439 582.739C71.5659 582.764 71.6417 582.733 71.7124 582.671C71.7831 582.609 71.8589 582.578 71.8809 582.603C71.9028 582.628 71.9593 582.614 72.0064 582.573C72.0536 582.531 72.1101 582.518 72.132 582.543C72.154 582.568 72.2298 582.537 72.3005 582.475C72.3712 582.412 72.447 582.382 72.4689 582.407C72.4909 582.432 72.586 582.384 72.6803 582.301C72.7746 582.218 72.8697 582.171 72.8916 582.196C72.9135 582.22 72.9893 582.19 73.06 582.128C73.1308 582.065 73.2066 582.035 73.2285 582.06C73.2504 582.085 73.3455 582.037 73.4398 581.954C73.5341 581.871 73.6292 581.824 73.6511 581.848C73.6731 581.873 73.7489 581.843 73.8196 581.781C73.8903 581.718 73.9661 581.688 73.9881 581.713C74.01 581.738 74.1244 581.673 74.2423 581.569C74.3601 581.466 74.4745 581.401 74.4964 581.426C74.5184 581.451 74.6327 581.386 74.7506 581.283C74.8685 581.179 74.9829 581.114 75.0048 581.139C75.027 581.164 75.159 581.084 75.3019 580.958C75.4448 580.832 75.5768 580.752 75.5989 580.777C75.6217 580.803 75.7674 580.709 75.9389 580.558C76.1104 580.407 76.2561 580.314 76.2788 580.339C76.3027 580.367 76.4901 580.234 76.7473 580.007C77.0045 579.781 77.192 579.648 77.2159 579.675C77.2423 579.705 79.9707 577.331 85.315 572.628C90.6592 567.924 93.3608 565.519 93.3343 565.489C93.3102 565.462 93.4802 565.281 93.766 565.029C94.0518 564.778 94.2219 564.596 94.1977 564.569C94.175 564.543 94.2865 564.41 94.458 564.259C94.6294 564.108 94.7409 563.976 94.7182 563.95C94.696 563.925 94.7927 563.804 94.9355 563.678C95.0784 563.553 95.1751 563.432 95.1529 563.407C95.131 563.382 95.2095 563.277 95.3274 563.173C95.4453 563.069 95.5238 562.964 95.5019 562.939C95.48 562.914 95.5392 562.826 95.6335 562.743C95.7278 562.66 95.7871 562.571 95.7651 562.546C95.7432 562.522 95.8024 562.433 95.8968 562.35C95.9911 562.267 96.0503 562.179 96.0284 562.154C96.0065 562.129 96.0657 562.041 96.16 561.958C96.2543 561.875 96.3135 561.787 96.2916 561.762C96.2697 561.737 96.3096 561.665 96.3804 561.603C96.4511 561.541 96.491 561.47 96.4691 561.445C96.4472 561.42 96.4872 561.349 96.5579 561.286C96.6286 561.224 96.6686 561.153 96.6466 561.128C96.6247 561.103 96.6647 561.032 96.7354 560.969C96.8061 560.907 96.8461 560.836 96.8241 560.811C96.8022 560.786 96.8422 560.715 96.9129 560.652C96.9836 560.59 97.0236 560.519 97.0017 560.494C96.9797 560.469 97.0197 560.398 97.0904 560.336C97.1611 560.273 97.2011 560.202 97.1792 560.177C97.1572 560.152 97.1779 560.098 97.225 560.056C97.2722 560.015 97.2928 559.96 97.2709 559.936C97.249 559.911 97.289 559.839 97.3597 559.777C97.4304 559.715 97.4704 559.644 97.4484 559.619C97.4265 559.594 97.4472 559.539 97.4943 559.498C97.5415 559.456 97.5621 559.402 97.5402 559.377C97.5183 559.352 97.5582 559.281 97.629 559.219C97.6997 559.156 97.7396 559.085 97.7177 559.06C97.6958 559.035 97.7165 558.981 97.7636 558.94C97.8108 558.898 97.8314 558.844 97.8095 558.819C97.7876 558.794 97.8082 558.74 97.8554 558.698C97.9025 558.657 97.9232 558.602 97.9013 558.577C97.8793 558.552 97.9 558.498 97.9471 558.457C97.9943 558.415 98.015 558.361 97.993 558.336C97.9711 558.311 97.9918 558.257 98.0389 558.215C98.0861 558.174 98.1067 558.119 98.0848 558.094C98.0629 558.069 98.0835 558.015 98.1307 557.974C98.1778 557.932 98.1985 557.878 98.1766 557.853C98.1547 557.828 98.1753 557.774 98.2225 557.732C98.2696 557.691 98.2903 557.636 98.2683 557.611C98.2464 557.586 98.2628 557.536 98.3048 557.499C98.3467 557.462 98.373 557.367 98.3631 557.287C98.3533 557.207 98.3795 557.112 98.4215 557.075C98.4634 557.038 98.4798 556.987 98.4579 556.962C98.436 556.938 98.4524 556.887 98.4943 556.85C98.5363 556.813 98.5626 556.718 98.5527 556.638C98.5429 556.558 98.5691 556.463 98.6111 556.426C98.653 556.389 98.6694 556.338 98.6475 556.313C98.6256 556.289 98.642 556.238 98.6839 556.201C98.7259 556.164 98.7521 556.069 98.7423 555.989C98.7325 555.909 98.7545 555.818 98.7912 555.785C98.8279 555.753 98.8499 555.661 98.8401 555.581C98.8303 555.502 98.8488 555.413 98.8813 555.385C98.9137 555.356 98.9406 555.224 98.9409 555.091C98.9412 554.958 98.9681 554.826 99.0006 554.797C99.0331 554.769 99.0516 554.68 99.0417 554.6C99.0319 554.521 99.05 554.433 99.082 554.404C99.1141 554.376 99.1426 554.206 99.1456 554.027C99.1485 553.848 99.1728 553.682 99.1995 553.658C99.2263 553.635 99.2542 553.393 99.2615 553.121C99.2688 552.85 99.2954 552.609 99.3205 552.587C99.3802 552.535 99.4486 550.654 99.3931 550.591C99.3697 550.565 99.3608 550.321 99.3731 550.05C99.3855 549.779 99.3753 549.534 99.3505 549.506C99.3256 549.478 99.3135 549.308 99.3236 549.13C99.3337 548.951 99.3176 548.777 99.2878 548.743C99.2581 548.709 99.2465 548.618 99.262 548.541C99.2776 548.463 99.2624 548.368 99.2282 548.33C99.194 548.291 99.1788 548.196 99.1944 548.118C99.2099 548.041 99.1979 547.949 99.1677 547.915C99.1376 547.881 99.1204 547.745 99.1298 547.613C99.1391 547.481 99.118 547.34 99.083 547.3C99.0479 547.26 99.0386 547.211 99.0621 547.19C99.0857 547.169 99.0731 547.116 99.0341 547.072C98.9951 547.028 98.9759 546.928 98.9915 546.851C99.007 546.773 98.9879 546.674 98.9489 546.629C98.9099 546.585 98.8973 546.532 98.9208 546.511C98.9444 546.49 98.9318 546.437 98.8928 546.393C98.8538 546.348 98.8346 546.249 98.8502 546.171C98.8657 546.094 98.8466 545.994 98.8076 545.95C98.7686 545.906 98.756 545.853 98.7795 545.832C98.8031 545.811 98.7865 545.753 98.7427 545.703C98.6989 545.654 98.6823 545.596 98.7059 545.575C98.7295 545.554 98.7129 545.497 98.669 545.447C98.6252 545.397 98.6086 545.339 98.6322 545.319C98.6558 545.298 98.6392 545.24 98.5954 545.19C98.5515 545.141 98.535 545.083 98.5585 545.062C98.5821 545.041 98.5655 544.984 98.5217 544.934C98.4779 544.884 98.4613 544.826 98.4849 544.805C98.5085 544.785 98.4739 544.707 98.4082 544.632C98.3424 544.557 98.3079 544.479 98.3315 544.458C98.3551 544.438 98.3385 544.38 98.2947 544.33C98.2508 544.28 98.2343 544.223 98.2578 544.202C98.2814 544.181 98.2648 544.123 98.221 544.073C98.1772 544.024 98.1606 543.966 98.1842 543.945C98.2077 543.924 98.1732 543.846 98.1075 543.772C98.0417 543.697 98.0072 543.619 98.0308 543.598C98.0544 543.577 98.0378 543.52 97.994 543.47C97.9501 543.42 97.9336 543.362 97.9571 543.341C97.9807 543.321 97.9462 543.243 97.8805 543.168C97.8147 543.093 97.7802 543.015 97.8038 542.994C97.8273 542.974 97.7928 542.896 97.7271 542.821C97.6613 542.746 97.6268 542.668 97.6504 542.647C97.674 542.626 97.6395 542.548 97.5737 542.474C97.508 542.399 97.4735 542.321 97.497 542.3C97.5206 542.279 97.4861 542.201 97.4203 542.127C97.3546 542.052 97.3201 541.974 97.3437 541.953C97.3672 541.932 97.3148 541.834 97.2271 541.734C97.1395 541.634 97.087 541.536 97.1106 541.515C97.1342 541.495 97.0817 541.396 96.9941 541.296C96.9064 541.197 96.8539 541.098 96.8775 541.078C96.9011 541.057 96.8307 540.938 96.7211 540.813C96.6115 540.689 96.5412 540.57 96.5648 540.549C96.5886 540.528 96.5013 540.391 96.3685 540.24C96.2357 540.089 96.1484 539.951 96.1723 539.931C96.1968 539.909 96.0956 539.757 95.9362 539.576C95.7768 539.395 95.6756 539.243 95.7001 539.221C95.7266 539.198 95.5304 538.942 95.1851 538.549C94.8397 538.157 94.6435 537.901 94.67 537.878C94.6976 537.854 94.2878 537.357 93.5174 536.482C92.7469 535.606 92.3066 535.137 92.279 535.161ZM88.6354 538.85C86.9995 540.29 86.6627 540.568 86.5637 540.558C86.4987 540.553 86.4261 540.526 86.4023 540.499C86.3356 540.423 84.798 540.299 84.7247 540.363C84.6891 540.395 84.6419 540.4 84.62 540.375C84.5981 540.35 84.5416 540.364 84.4944 540.405C84.4473 540.447 84.3908 540.46 84.3688 540.435C84.3469 540.411 84.2904 540.424 84.2432 540.466C84.1961 540.507 84.1396 540.521 84.1177 540.496C84.0957 540.471 84.0392 540.484 83.9921 540.526C83.9449 540.567 83.8884 540.581 83.8665 540.556C83.8446 540.531 83.7881 540.545 83.7409 540.586C83.6937 540.628 83.6372 540.641 83.6153 540.617C83.5934 540.592 83.5176 540.622 83.4469 540.684C83.3761 540.747 83.3003 540.777 83.2784 540.752C83.2565 540.727 83.1807 540.758 83.1099 540.82C83.0392 540.882 82.9634 540.913 82.9415 540.888C82.9196 540.863 82.8245 540.911 82.7302 540.994C82.6359 541.077 82.5408 541.124 82.5188 541.099C82.4967 541.074 82.3647 541.155 82.2218 541.28C82.0789 541.406 81.9469 541.487 81.9247 541.462C81.8985 541.432 80.9132 542.272 79.0556 543.906C77.198 545.541 76.2399 546.412 76.2661 546.442C76.2883 546.467 76.1916 546.588 76.0488 546.713C75.9059 546.839 75.8092 546.96 75.8314 546.985C75.8533 547.01 75.7748 547.115 75.6569 547.219C75.539 547.323 75.4605 547.428 75.4824 547.453C75.5043 547.478 75.4644 547.549 75.3937 547.611C75.3229 547.674 75.283 547.745 75.3049 547.77C75.3268 547.795 75.2869 547.866 75.2162 547.928C75.1454 547.991 75.1055 548.062 75.1274 548.087C75.1493 548.112 75.1287 548.166 75.0815 548.208C75.0344 548.249 75.0137 548.303 75.0356 548.328C75.0575 548.353 75.0369 548.407 74.9897 548.449C74.9426 548.49 74.9219 548.545 74.9439 548.57C74.9658 548.595 74.9451 548.649 74.898 548.69C74.8508 548.732 74.8302 548.786 74.8521 548.811C74.874 548.836 74.8576 548.887 74.8157 548.924C74.7737 548.961 74.7475 549.056 74.7573 549.136C74.7671 549.215 74.7502 549.303 74.7197 549.33C74.6534 549.388 74.6005 550.6 74.6613 550.669C74.6845 550.695 74.7002 550.809 74.6961 550.921L74.6888 551.124L73.4406 552.223C72.416 553.125 72.1712 553.32 72.0742 553.311C71.9729 553.301 71.1294 552.361 66.1549 546.709L60.3538 540.117L63.526 537.325C65.6123 535.489 66.7119 534.549 66.7381 534.579C66.7614 534.605 66.9209 534.498 67.1209 534.322C67.321 534.146 67.4805 534.039 67.5037 534.065C67.5259 534.091 67.6579 534.01 67.8008 533.884C67.9437 533.759 68.0757 533.678 68.0978 533.703C68.1198 533.728 68.2341 533.664 68.352 533.56C68.4699 533.456 68.5843 533.392 68.6062 533.417C68.6281 533.441 68.7425 533.377 68.8604 533.273C68.9783 533.169 69.0927 533.105 69.1146 533.13C69.1365 533.155 69.2123 533.124 69.2831 533.062C69.3538 533 69.4296 532.969 69.4515 532.994C69.4734 533.019 69.5685 532.971 69.6628 532.888C69.7572 532.805 69.8522 532.758 69.8742 532.783C69.8961 532.808 69.9719 532.777 70.0426 532.715C70.1134 532.653 70.1892 532.622 70.2111 532.647C70.233 532.672 70.3281 532.624 70.4224 532.541C70.5167 532.458 70.6118 532.411 70.6337 532.436C70.6556 532.461 70.7122 532.447 70.7593 532.406C70.8065 532.364 70.863 532.35 70.8849 532.375C70.9068 532.4 70.9826 532.37 71.0534 532.307C71.1241 532.245 71.1999 532.215 71.2218 532.24C71.2437 532.264 71.3195 532.234 71.3903 532.172C71.461 532.109 71.5368 532.079 71.5587 532.104C71.5806 532.129 71.6372 532.115 71.6843 532.074C71.7315 532.032 71.788 532.018 71.8099 532.043C71.8318 532.068 71.9076 532.038 71.9784 531.975C72.0491 531.913 72.1249 531.883 72.1468 531.908C72.1687 531.932 72.2252 531.919 72.2724 531.877C72.3195 531.836 72.3761 531.822 72.398 531.847C72.4199 531.872 72.4764 531.859 72.5236 531.817C72.5707 531.776 72.6272 531.762 72.6492 531.787C72.6711 531.812 72.7276 531.798 72.7747 531.757C72.8219 531.715 72.8784 531.702 72.9003 531.726C72.9222 531.751 72.9788 531.738 73.0259 531.696C73.0731 531.655 73.1296 531.641 73.1515 531.666C73.1734 531.691 73.2299 531.677 73.2771 531.636C73.3242 531.594 73.3808 531.581 73.4027 531.606C73.4246 531.631 73.4811 531.617 73.5283 531.576C73.5754 531.534 73.6319 531.521 73.6539 531.545C73.6758 531.57 73.7323 531.557 73.7794 531.515C73.8266 531.474 73.8831 531.46 73.905 531.485C73.9269 531.51 73.9792 531.5 74.0211 531.463C74.0631 531.426 74.1611 531.412 74.2389 531.432C74.3168 531.452 74.4147 531.438 74.4567 531.401C74.4986 531.364 74.5509 531.355 74.5728 531.379C74.5947 531.404 74.647 531.394 74.6889 531.358C74.7309 531.321 74.8289 531.307 74.9067 531.327C74.9845 531.347 75.0783 531.336 75.115 531.304C75.1518 531.272 75.2455 531.261 75.3233 531.281C75.4012 531.301 75.4949 531.291 75.5316 531.259C75.5684 531.226 75.6621 531.216 75.7399 531.236C75.8178 531.256 75.908 531.249 75.9405 531.22C75.973 531.192 76.1075 531.182 76.2393 531.198C76.3711 531.215 76.502 531.208 76.5303 531.183C76.5585 531.158 76.6895 531.152 76.8213 531.168C76.9531 531.185 77.0833 531.179 77.1105 531.155C77.1377 531.131 77.3812 531.134 77.6515 531.161C77.9219 531.188 78.1637 531.192 78.189 531.17C78.2486 531.117 79.6256 531.243 79.681 531.306C79.7043 531.332 79.9822 531.376 80.2985 531.402C80.6149 531.429 80.8943 531.474 80.9195 531.503C80.9446 531.531 81.0733 531.561 81.2054 531.568C81.3376 531.576 81.4704 531.61 81.5006 531.645C81.5308 531.679 81.62 531.702 81.6987 531.697C81.7775 531.691 81.8666 531.715 81.8968 531.749C81.927 531.783 82.0599 531.818 82.192 531.825C82.3242 531.833 82.461 531.871 82.496 531.911C82.5311 531.951 82.579 531.967 82.6026 531.946C82.6262 531.925 82.6774 531.944 82.7164 531.989C82.7554 532.033 82.8517 532.065 82.9305 532.059C83.0092 532.053 83.1016 532.081 83.1358 532.119C83.1699 532.158 83.2623 532.185 83.341 532.18C83.4198 532.174 83.5161 532.206 83.5551 532.25C83.5941 532.294 83.6453 532.314 83.6689 532.293C83.6925 532.272 83.7476 532.296 83.7915 532.346C83.8353 532.396 83.8905 532.419 83.914 532.399C83.9376 532.378 83.9928 532.402 84.0366 532.452C84.0804 532.501 84.1356 532.525 84.1592 532.504C84.1828 532.484 84.2379 532.507 84.2817 532.557C84.3256 532.607 84.3807 532.631 84.4043 532.61C84.4279 532.589 84.4831 532.613 84.5269 532.663C84.5707 532.713 84.6259 532.736 84.6495 532.716C84.673 532.695 84.7282 532.719 84.772 532.769C84.8159 532.818 84.871 532.842 84.8946 532.821C84.9182 532.801 84.9733 532.824 85.0172 532.874C85.061 532.924 85.1162 532.948 85.1397 532.927C85.1633 532.906 85.2364 532.95 85.3022 533.025C85.3679 533.1 85.441 533.144 85.4646 533.123C85.4882 533.102 85.5433 533.126 85.5871 533.176C85.631 533.226 85.6861 533.25 85.7097 533.229C85.7333 533.208 85.8064 533.252 85.8721 533.327C85.9379 533.402 86.011 533.446 86.0346 533.425C86.0581 533.404 86.1312 533.449 86.197 533.523C86.2627 533.598 86.3358 533.642 86.3594 533.621C86.383 533.601 86.4561 533.645 86.5218 533.719C86.5876 533.794 86.6607 533.838 86.6842 533.818C86.7078 533.797 86.7809 533.841 86.8467 533.916C86.9124 533.99 86.9855 534.035 87.0091 534.014C87.0327 533.993 87.1237 534.058 87.2114 534.157C87.299 534.257 87.39 534.321 87.4136 534.301C87.4372 534.28 87.5282 534.344 87.6159 534.444C87.7036 534.544 87.7946 534.608 87.8182 534.587C87.8417 534.567 87.9507 534.651 88.0603 534.776C88.1699 534.901 88.2788 534.985 88.3024 534.965C88.3262 534.944 88.4516 535.048 88.5844 535.199C88.7172 535.35 88.8425 535.454 88.8664 535.433C88.8921 535.41 89.0686 535.576 89.3077 535.848C89.5468 536.119 89.7234 536.285 89.7491 536.263C89.7748 536.24 89.9514 536.406 90.1905 536.678L90.589 537.131L88.6354 538.85ZM93.0966 540.066C93.0709 540.089 93.2131 540.285 93.4522 540.557C93.6913 540.828 93.8336 541.025 93.8079 541.047C93.784 541.068 93.8713 541.206 94.0041 541.357C94.1369 541.508 94.2242 541.645 94.2003 541.666C94.1768 541.687 94.2471 541.806 94.3567 541.93C94.4663 542.055 94.5367 542.174 94.5131 542.194C94.4895 542.215 94.542 542.314 94.6296 542.413C94.7173 542.513 94.7698 542.611 94.7462 542.632C94.7226 542.653 94.775 542.751 94.8627 542.851C94.9504 542.95 95.0028 543.049 94.9792 543.07C94.9557 543.09 94.9902 543.169 95.0559 543.243C95.1217 543.318 95.1562 543.396 95.1326 543.417C95.109 543.438 95.1435 543.516 95.2093 543.59C95.2751 543.665 95.3096 543.743 95.286 543.764C95.2624 543.785 95.2969 543.863 95.3627 543.937C95.4284 544.012 95.4629 544.09 95.4394 544.111C95.4158 544.132 95.4503 544.21 95.516 544.285C95.5818 544.359 95.6163 544.437 95.5927 544.458C95.5691 544.479 95.5857 544.537 95.6296 544.586C95.6734 544.636 95.69 544.694 95.6664 544.715C95.6428 544.736 95.6773 544.814 95.7431 544.888C95.8088 544.963 95.8433 545.041 95.8198 545.062C95.7962 545.083 95.8128 545.14 95.8566 545.19C95.9004 545.24 95.917 545.298 95.8934 545.318C95.8698 545.339 95.8864 545.397 95.9303 545.447C95.9741 545.497 95.9907 545.554 95.9671 545.575C95.9435 545.596 95.9601 545.654 96.0039 545.703C96.0478 545.753 96.0643 545.811 96.0408 545.832C96.0172 545.852 96.0338 545.91 96.0776 545.96C96.1214 546.01 96.138 546.067 96.1144 546.088C96.0908 546.109 96.1074 546.167 96.1513 546.216C96.1951 546.266 96.2117 546.324 96.1881 546.345C96.1645 546.366 96.1811 546.423 96.2249 546.473C96.2688 546.523 96.2853 546.581 96.2618 546.601C96.2382 546.622 96.2508 546.675 96.2898 546.72C96.3288 546.764 96.348 546.864 96.3324 546.941C96.3169 547.018 96.336 547.118 96.375 547.162C96.414 547.207 96.4266 547.26 96.4031 547.281C96.3795 547.301 96.3921 547.355 96.4311 547.399C96.4701 547.443 96.4893 547.543 96.4737 547.62C96.4582 547.698 96.4734 547.793 96.5075 547.831C96.5417 547.87 96.5569 547.965 96.5413 548.043C96.5258 548.12 96.5378 548.212 96.568 548.246C96.5981 548.28 96.6153 548.416 96.606 548.548C96.5966 548.68 96.6105 548.813 96.6368 548.843C96.663 548.872 96.6769 549.005 96.6676 549.137C96.6582 549.269 96.6712 549.4 96.6963 549.429C96.7215 549.457 96.7308 549.74 96.7171 550.058C96.7033 550.375 96.7112 550.656 96.7345 550.682C96.7899 550.745 96.7394 552.127 96.6797 552.18C96.6545 552.202 96.6279 552.442 96.6205 552.714C96.6132 552.985 96.5849 553.227 96.5577 553.251C96.5305 553.275 96.5079 553.403 96.5076 553.536C96.5073 553.669 96.484 553.798 96.4557 553.823C96.4275 553.848 96.4041 553.977 96.4038 554.11C96.4035 554.243 96.3766 554.375 96.3441 554.403C96.3117 554.432 96.2931 554.521 96.303 554.6C96.3128 554.68 96.2908 554.772 96.2541 554.804C96.2173 554.836 96.1953 554.928 96.2052 555.008C96.215 555.088 96.193 555.179 96.1563 555.212C96.1195 555.244 96.0975 555.336 96.1073 555.415C96.1172 555.495 96.0909 555.59 96.049 555.627C96.007 555.664 95.9906 555.715 96.0126 555.74C96.0345 555.765 96.0181 555.815 95.9761 555.852C95.9342 555.889 95.9079 555.985 95.9178 556.064C95.9276 556.144 95.9014 556.239 95.8594 556.276C95.8175 556.313 95.8011 556.364 95.823 556.389C95.8449 556.414 95.8243 556.468 95.7771 556.51C95.7299 556.551 95.7093 556.605 95.7312 556.63C95.7531 556.655 95.7325 556.709 95.6853 556.751C95.6382 556.792 95.6175 556.847 95.6394 556.872C95.6614 556.897 95.6407 556.951 95.5936 556.992C95.5464 557.034 95.5258 557.088 95.5477 557.113C95.5696 557.138 95.5489 557.192 95.5018 557.234C95.4546 557.275 95.434 557.33 95.4559 557.355C95.4778 557.38 95.4572 557.434 95.41 557.475C95.3629 557.517 95.3422 557.571 95.3641 557.596C95.386 557.621 95.3654 557.675 95.3182 557.717C95.2711 557.758 95.2504 557.813 95.2724 557.838C95.2943 557.863 95.2736 557.917 95.2265 557.958C95.1793 558 95.1587 558.054 95.1806 558.079C95.2025 558.104 95.1626 558.175 95.0918 558.238C95.0211 558.3 94.9812 558.371 95.0031 558.396C95.025 558.421 95.0043 558.475 94.9572 558.517C94.91 558.558 94.8894 558.613 94.9113 558.637C94.9332 558.662 94.8933 558.734 94.8226 558.796C94.7518 558.858 94.7119 558.93 94.7338 558.954C94.7557 558.979 94.7158 559.051 94.645 559.113C94.5743 559.175 94.5344 559.246 94.5563 559.271C94.5782 559.296 94.5576 559.351 94.5104 559.392C94.4632 559.434 94.4426 559.488 94.4645 559.513C94.4864 559.538 94.4272 559.626 94.3329 559.709C94.2386 559.792 94.1794 559.88 94.2013 559.905C94.2232 559.93 94.1833 560.001 94.1125 560.064C94.0418 560.126 94.0018 560.197 94.0238 560.222C94.0457 560.247 93.9865 560.335 93.8921 560.418C93.7978 560.501 93.7386 560.59 93.7605 560.615C93.7824 560.639 93.7425 560.711 93.6718 560.773C93.601 560.835 93.5611 560.907 93.583 560.931C93.6049 560.956 93.5264 561.062 93.4085 561.165C93.2906 561.269 93.2121 561.374 93.234 561.399C93.256 561.424 93.1774 561.529 93.0595 561.633C92.9417 561.737 92.8631 561.842 92.8851 561.867C92.9072 561.892 92.8106 562.013 92.6677 562.139C92.5248 562.265 92.4282 562.385 92.4503 562.41C92.4736 562.437 92.3473 562.581 92.1472 562.758C91.9472 562.934 91.8209 563.078 91.8441 563.105C91.8704 563.134 90.798 564.106 88.7117 565.942L85.5395 568.734L79.7384 562.142C74.7638 556.49 73.9379 555.534 73.9416 555.432C73.9451 555.335 74.1694 555.117 75.194 554.215L76.4422 553.117L76.6452 553.135C76.7569 553.146 76.8673 553.175 76.8906 553.202C76.9514 553.271 78.1602 553.372 78.2265 553.314C78.2571 553.287 78.3457 553.282 78.4236 553.301C78.5014 553.321 78.5994 553.307 78.6414 553.27C78.6833 553.234 78.7355 553.224 78.7575 553.249C78.7794 553.274 78.8359 553.26 78.8831 553.218C78.9302 553.177 78.9867 553.163 79.0086 553.188C79.0306 553.213 79.0871 553.2 79.1342 553.158C79.1814 553.117 79.2379 553.103 79.2598 553.128C79.2817 553.153 79.3382 553.139 79.3854 553.098C79.4326 553.056 79.4891 553.043 79.511 553.068C79.5329 553.092 79.6087 553.062 79.6794 553C79.7502 552.937 79.826 552.907 79.8479 552.932C79.8698 552.957 79.9649 552.909 80.0592 552.826C80.1535 552.743 80.2486 552.696 80.2705 552.72C80.2925 552.745 80.3876 552.698 80.4819 552.615C80.5762 552.532 80.6713 552.484 80.6932 552.509C80.7154 552.534 80.8474 552.454 80.9903 552.328C81.1331 552.202 81.2652 552.122 81.2873 552.147C81.3135 552.177 82.2989 551.337 84.1565 549.702C86.0141 548.067 86.9721 547.197 86.9459 547.167C86.9238 547.142 87.0204 547.021 87.1633 546.895C87.3062 546.769 87.4028 546.649 87.3806 546.624C87.3587 546.599 87.418 546.51 87.5123 546.427C87.6066 546.344 87.6658 546.256 87.6439 546.231C87.622 546.206 87.6619 546.135 87.7326 546.073C87.8034 546.01 87.8433 545.939 87.8214 545.914C87.7995 545.889 87.8394 545.818 87.9102 545.756C87.9809 545.693 88.0208 545.622 87.9989 545.597C87.977 545.572 87.9976 545.518 88.0448 545.477C88.0919 545.435 88.1126 545.381 88.0907 545.356C88.0688 545.331 88.0894 545.277 88.1366 545.235C88.1837 545.194 88.2044 545.139 88.1824 545.114C88.1605 545.089 88.1812 545.035 88.2283 544.994C88.2755 544.952 88.2961 544.898 88.2742 544.873C88.2523 544.848 88.2729 544.794 88.3201 544.752C88.3673 544.711 88.3879 544.656 88.366 544.631C88.3441 544.606 88.3553 544.56 88.391 544.529C88.4643 544.464 88.5366 542.924 88.4699 542.848C88.4461 542.821 88.4286 542.745 88.431 542.68C88.4346 542.581 88.7529 542.282 90.3889 540.842L92.3424 539.123L92.7409 539.576C92.98 539.847 93.1223 540.044 93.0966 540.066ZM85.8355 543.526C85.8281 543.73 85.7926 543.923 85.7566 543.955C85.7206 543.987 85.7091 544.033 85.731 544.058C85.753 544.083 85.713 544.154 85.6423 544.216C85.5716 544.278 85.5316 544.35 85.5535 544.375C85.5755 544.4 85.5355 544.471 85.4648 544.533C85.3941 544.595 85.3541 544.667 85.376 544.692C85.3979 544.716 85.3387 544.805 85.2444 544.888C85.1501 544.971 85.0909 545.059 85.1128 545.084C85.139 545.114 84.1667 545.997 82.2805 547.657C80.3943 549.317 79.3946 550.169 79.3684 550.14C79.3465 550.115 79.2514 550.162 79.1571 550.245C79.0628 550.328 78.9677 550.376 78.9458 550.351C78.9239 550.326 78.8481 550.357 78.7773 550.419C78.7066 550.481 78.6308 550.512 78.6089 550.487C78.587 550.462 78.5305 550.475 78.4833 550.517C78.4361 550.558 78.3796 550.572 78.3577 550.547C78.3358 550.522 78.2793 550.536 78.2321 550.577C78.185 550.619 78.1285 550.632 78.1065 550.607C78.0846 550.582 78.0371 550.588 78.001 550.62C77.9267 550.685 77.3844 550.651 77.3192 550.577C77.254 550.503 77.2891 549.961 77.3634 549.895C77.3995 549.864 77.4111 549.817 77.3892 549.792C77.3673 549.767 77.388 549.713 77.4351 549.672C77.4823 549.63 77.5029 549.576 77.481 549.551C77.4591 549.526 77.4797 549.472 77.5269 549.43C77.574 549.389 77.5947 549.334 77.5728 549.309C77.5508 549.285 77.5908 549.213 77.6615 549.151C77.7322 549.089 77.7722 549.017 77.7503 548.992C77.7284 548.968 77.7876 548.879 77.8819 548.796C77.9762 548.713 78.0354 548.625 78.0135 548.6C77.9873 548.57 78.9596 547.687 80.8458 546.027C82.732 544.367 83.7317 543.515 83.7579 543.544C83.7798 543.569 83.8749 543.522 83.9692 543.439C84.0635 543.356 84.1586 543.308 84.1805 543.333C84.2024 543.358 84.2782 543.328 84.349 543.265C84.4197 543.203 84.4955 543.172 84.5174 543.197C84.5393 543.222 84.6151 543.192 84.6859 543.129C84.7566 543.067 84.8324 543.037 84.8543 543.062C84.8762 543.086 84.9236 543.081 84.9595 543.049C85.0378 542.98 85.7184 543.021 85.7951 543.099C85.8247 543.13 85.843 543.322 85.8355 543.526ZM79.4093 574.129C76.6086 576.594 75.1518 577.849 75.1255 577.819C75.1023 577.792 74.9428 577.899 74.7427 578.075C74.5427 578.251 74.3832 578.358 74.3599 578.332C74.3372 578.306 74.1915 578.4 74.02 578.551C73.8485 578.702 73.7028 578.795 73.6801 578.77C73.6582 578.745 73.5438 578.809 73.4259 578.913C73.308 579.017 73.1936 579.081 73.1717 579.056C73.1498 579.031 73.0547 579.079 72.9604 579.162C72.8661 579.245 72.771 579.293 72.749 579.268C72.7271 579.243 72.632 579.29 72.5377 579.373C72.4434 579.456 72.3483 579.504 72.3264 579.479C72.3045 579.454 72.2094 579.502 72.1151 579.585C72.0208 579.668 71.9257 579.715 71.9037 579.69C71.8818 579.665 71.806 579.696 71.7353 579.758C71.6646 579.82 71.5888 579.851 71.5668 579.826C71.5449 579.801 71.4691 579.832 71.3984 579.894C71.3276 579.956 71.2518 579.987 71.2299 579.962C71.208 579.937 71.1322 579.967 71.0615 580.03C70.9907 580.092 70.9149 580.122 70.893 580.098C70.8711 580.073 70.7953 580.103 70.7246 580.165C70.6538 580.228 70.578 580.258 70.5561 580.233C70.5342 580.208 70.4777 580.222 70.4305 580.264C70.3834 580.305 70.3268 580.319 70.3049 580.294C70.283 580.269 70.2072 580.299 70.1365 580.362C70.0657 580.424 69.9899 580.454 69.968 580.43C69.9461 580.405 69.8896 580.418 69.8424 580.46C69.7953 580.501 69.7388 580.515 69.7168 580.49C69.6949 580.465 69.6384 580.479 69.5913 580.52C69.5441 580.562 69.4876 580.575 69.4657 580.55C69.4438 580.525 69.3679 580.556 69.2972 580.618C69.2265 580.68 69.1507 580.711 69.1288 580.686C69.1068 580.661 69.0503 580.675 69.0032 580.716C68.956 580.758 68.8995 580.771 68.8776 580.746C68.8557 580.722 68.7992 580.735 68.752 580.777C68.7048 580.818 68.6483 580.832 68.6264 580.807C68.6045 580.782 68.548 580.795 68.5008 580.837C68.4537 580.878 68.3972 580.892 68.3752 580.867C68.3533 580.842 68.301 580.852 68.2591 580.889C68.2172 580.926 68.1192 580.94 68.0413 580.92C67.9635 580.9 67.8655 580.914 67.8236 580.951C67.7816 580.988 67.7294 580.998 67.7074 580.973C67.6855 580.948 67.629 580.961 67.5819 581.003C67.5347 581.044 67.4782 581.058 67.4563 581.033C67.4344 581.008 67.3821 581.018 67.3402 581.055C67.2982 581.092 67.2002 581.106 67.1224 581.086C67.0445 581.066 66.9508 581.076 66.9141 581.109C66.8773 581.141 66.7836 581.151 66.7058 581.131C66.6279 581.111 66.5342 581.121 66.4975 581.154C66.4607 581.186 66.367 581.196 66.2892 581.176C66.2113 581.157 66.1176 581.167 66.0808 581.199C66.0441 581.231 65.9504 581.242 65.8725 581.222C65.7947 581.202 65.7044 581.209 65.6719 581.238C65.6395 581.266 65.505 581.276 65.3732 581.259C65.2414 581.243 65.1111 581.249 65.0836 581.273C65.0562 581.297 64.8502 581.298 64.6257 581.274C64.4013 581.251 64.197 581.25 64.1717 581.272C64.1113 581.325 61.4102 581.078 61.354 581.014C61.3302 580.987 61.1646 580.955 60.9861 580.942C60.8075 580.929 60.6403 580.895 60.6146 580.866C60.5887 580.836 60.4595 580.806 60.3273 580.799C60.1952 580.791 60.0623 580.757 60.0322 580.723C60.002 580.688 59.9128 580.665 59.834 580.67C59.7553 580.676 59.6629 580.649 59.6288 580.61C59.5946 580.571 59.5022 580.544 59.4235 580.55C59.3447 580.555 59.2523 580.528 59.2182 580.489C59.184 580.451 59.0916 580.423 59.0129 580.429C58.9341 580.435 58.8418 580.407 58.8076 580.369C58.7734 580.33 58.6811 580.303 58.6023 580.308C58.5236 580.314 58.4272 580.282 58.3882 580.238C58.3492 580.194 58.298 580.174 58.2745 580.195C58.2509 580.216 58.1957 580.192 58.1519 580.142C58.108 580.092 58.0529 580.069 58.0293 580.089C58.0057 580.11 57.9506 580.086 57.9067 580.036C57.8629 579.987 57.8078 579.963 57.7842 579.984C57.7606 580.004 57.7054 579.981 57.6616 579.931C57.6178 579.881 57.5626 579.857 57.539 579.878C57.5155 579.899 57.4603 579.875 57.4165 579.825C57.3726 579.775 57.3175 579.752 57.2939 579.772C57.2703 579.793 57.2152 579.769 57.1713 579.72C57.1275 579.67 57.0723 579.646 57.0488 579.667C57.0252 579.687 56.97 579.664 56.9262 579.614C56.8823 579.564 56.8272 579.54 56.8036 579.561C56.78 579.582 56.7249 579.558 56.681 579.508C56.6372 579.458 56.5821 579.435 56.5585 579.455C56.5349 579.476 56.4618 579.432 56.3961 579.357C56.3303 579.283 56.2572 579.238 56.2336 579.259C56.2101 579.28 56.1549 579.256 56.1111 579.206C56.0672 579.156 56.0121 579.133 55.9885 579.153C55.9649 579.174 55.8918 579.13 55.8261 579.055C55.7603 578.981 55.6872 578.937 55.6637 578.957C55.6401 578.978 55.567 578.934 55.5012 578.859C55.4355 578.784 55.3624 578.74 55.3388 578.761C55.3152 578.782 55.2421 578.738 55.1764 578.663C55.1106 578.588 55.0375 578.544 55.014 578.565C54.9904 578.586 54.8994 578.521 54.8117 578.421C54.724 578.322 54.633 578.257 54.6094 578.278C54.5858 578.299 54.4948 578.234 54.4072 578.135C54.3195 578.035 54.2285 577.971 54.2049 577.991C54.1813 578.012 54.0903 577.947 54.0026 577.848C53.9149 577.748 53.8239 577.684 53.8003 577.704C53.7768 577.725 53.6678 577.64 53.5582 577.516C53.4486 577.391 53.3397 577.306 53.3161 577.327C53.2911 577.349 53.1404 577.214 52.9544 577.003C52.7684 576.791 52.6177 576.656 52.5927 576.678C52.5647 576.703 51.806 575.871 50.3979 574.271C48.9899 572.671 48.2608 571.813 48.2889 571.788C48.3138 571.766 48.1989 571.599 48.0129 571.388C47.8269 571.177 47.712 571.01 47.737 570.988C47.7606 570.967 47.6902 570.848 47.5806 570.724C47.471 570.599 47.4006 570.481 47.4242 570.46C47.4478 570.439 47.3953 570.341 47.3077 570.241C47.22 570.141 47.1676 570.043 47.1911 570.022C47.2147 570.001 47.1623 569.903 47.0746 569.803C46.9869 569.704 46.9345 569.605 46.9581 569.584C46.9816 569.564 46.9292 569.465 46.8415 569.366C46.7539 569.266 46.7014 569.167 46.725 569.147C46.7486 569.126 46.7141 569.048 46.6483 568.973C46.5826 568.898 46.5481 568.82 46.5716 568.8C46.5952 568.779 46.5607 568.701 46.4949 568.626C46.4292 568.551 46.3947 568.473 46.4183 568.452C46.4418 568.432 46.4073 568.354 46.3416 568.279C46.2758 568.204 46.2413 568.126 46.2649 568.105C46.2885 568.085 46.2719 568.027 46.2281 567.977C46.1842 567.927 46.1676 567.869 46.1912 567.849C46.2148 567.828 46.1982 567.77 46.1544 567.72C46.1106 567.671 46.094 567.613 46.1176 567.592C46.1411 567.571 46.1066 567.493 46.0409 567.419C45.9751 567.344 45.9406 567.266 45.9642 567.245C45.9878 567.224 45.9712 567.167 45.9274 567.117C45.8835 567.067 45.8669 567.009 45.8905 566.988C45.9141 566.968 45.8975 566.91 45.8537 566.86C45.8099 566.81 45.7933 566.753 45.8169 566.732C45.8404 566.711 45.8239 566.653 45.78 566.604C45.7362 566.554 45.7196 566.496 45.7432 566.475C45.7668 566.455 45.7502 566.397 45.7064 566.347C45.6625 566.297 45.6459 566.239 45.6695 566.219C45.6931 566.198 45.6765 566.14 45.6327 566.09C45.5889 566.041 45.5723 565.983 45.5959 565.962C45.6194 565.941 45.6029 565.884 45.559 565.834C45.5152 565.784 45.4986 565.726 45.5222 565.706C45.5458 565.685 45.5331 565.632 45.4942 565.587C45.4551 565.543 45.436 565.443 45.4515 565.366C45.4671 565.289 45.4519 565.193 45.4177 565.155C45.3836 565.116 45.3684 565.021 45.3839 564.943C45.3995 564.866 45.3842 564.771 45.3501 564.732C45.3159 564.693 45.3007 564.598 45.3163 564.521C45.3318 564.443 45.3166 564.348 45.2825 564.309C45.2483 564.271 45.2331 564.176 45.2486 564.098C45.2642 564.021 45.2522 563.929 45.222 563.895C45.1918 563.861 45.1747 563.725 45.184 563.593C45.1934 563.461 45.1801 563.329 45.1546 563.3C45.1291 563.271 45.1173 563.063 45.1285 562.838C45.1396 562.613 45.1295 562.407 45.106 562.38C45.0498 562.316 45.1489 559.606 45.2093 559.553C45.2349 559.53 45.2583 559.365 45.2612 559.186C45.2642 559.006 45.2893 558.839 45.317 558.815C45.3448 558.791 45.3678 558.662 45.3681 558.529C45.3684 558.396 45.3953 558.264 45.4277 558.236C45.4602 558.207 45.4788 558.118 45.4689 558.039C45.4591 557.959 45.4811 557.867 45.5178 557.835C45.5546 557.803 45.5766 557.711 45.5667 557.631C45.5569 557.551 45.5789 557.46 45.6156 557.427C45.6524 557.395 45.6744 557.303 45.6645 557.224C45.6547 557.144 45.6767 557.052 45.7134 557.02C45.7502 556.988 45.7722 556.896 45.7623 556.816C45.7525 556.736 45.7787 556.641 45.8207 556.604C45.8626 556.567 45.879 556.517 45.8571 556.492C45.8352 556.467 45.8559 556.412 45.903 556.371C45.9502 556.329 45.9708 556.275 45.9489 556.25C45.927 556.225 45.9434 556.175 45.9853 556.138C46.0273 556.101 46.0535 556.005 46.0437 555.926C46.0338 555.846 46.0601 555.751 46.1021 555.714C46.144 555.677 46.1604 555.626 46.1385 555.601C46.1166 555.576 46.1372 555.522 46.1844 555.48C46.2315 555.439 46.2522 555.385 46.2302 555.36C46.2083 555.335 46.229 555.28 46.2761 555.239C46.3233 555.197 46.3439 555.143 46.322 555.118C46.3001 555.093 46.3207 555.039 46.3679 554.998C46.4151 554.956 46.4357 554.902 46.4138 554.877C46.3919 554.852 46.4318 554.781 46.5025 554.718C46.5733 554.656 46.6132 554.585 46.5913 554.56C46.5694 554.535 46.59 554.481 46.6372 554.439C46.6843 554.398 46.705 554.343 46.6831 554.318C46.6611 554.293 46.6818 554.239 46.729 554.198C46.7761 554.156 46.7968 554.102 46.7748 554.077C46.7529 554.052 46.7929 553.981 46.8636 553.918C46.9343 553.856 46.9743 553.785 46.9523 553.76C46.9304 553.735 46.9511 553.681 46.9982 553.639C47.0454 553.598 47.066 553.543 47.0441 553.518C47.0222 553.494 47.0621 553.422 47.1329 553.36C47.2036 553.298 47.2435 553.226 47.2216 553.202C47.1997 553.177 47.2396 553.105 47.3104 553.043C47.3811 552.981 47.421 552.91 47.3991 552.885C47.3772 552.86 47.4172 552.788 47.4879 552.726C47.5586 552.664 47.5986 552.593 47.5766 552.568C47.5547 552.543 47.5947 552.471 47.6654 552.409C47.7361 552.347 47.7761 552.276 47.7541 552.251C47.7322 552.226 47.7915 552.138 47.8858 552.055C47.9801 551.972 48.0393 551.883 48.0174 551.858C47.9955 551.833 48.0547 551.745 48.149 551.662C48.2433 551.579 48.3026 551.491 48.2806 551.466C48.2587 551.441 48.3179 551.353 48.4123 551.27C48.5066 551.187 48.5658 551.099 48.5439 551.074C48.522 551.049 48.6005 550.943 48.7184 550.84C48.8363 550.736 48.9148 550.631 48.8929 550.606C48.8707 550.581 48.9673 550.46 49.1102 550.334C49.2531 550.208 49.3497 550.088 49.3276 550.062C49.3039 550.036 49.4449 549.879 49.6735 549.678C49.9022 549.476 50.0431 549.32 50.0195 549.293C49.9932 549.263 51.4229 547.977 54.2236 545.512L58.4676 541.777L71.0604 556.086L83.6533 570.394L79.4093 574.129Z" fill="url(#paint0_linear)"/>
<path d="M86.6972 105.883C65.2846 79.4955 45.0349 54.6308 46.7209 25.7065C47.1597 18.0227 49.1165 10.3671 52.7023 2.30249L52.2345 0.426573C48.368 9.13415 46.1595 17.8696 45.6671 26.4206C43.9264 56.7142 63.4093 80.74 85.9751 108.521C116.292 145.861 150.649 188.2 135.426 254.247C126.676 292.216 110.919 310.307 85.8407 311.162C81.1528 311.324 76.4338 310.897 71.7219 310.167L70.9755 312.976C75.7895 313.769 80.6295 314.169 85.4346 314.003C101.54 313.457 124.33 306.735 136.268 254.935C152.09 186.429 117.338 143.639 86.6972 105.883Z" fill="#FD8033"/>
<path d="M111 516.993C103.964 493.788 86.278 472.752 67.7986 450.775C58.1144 439.298 48.3106 427.592 39.831 415.404C25.6727 395.057 15.2189 373.229 15.2189 348.176C15.2189 336.573 19.4492 329.55 28.5359 326.05C31.6579 324.918 34.8028 324.187 37.9572 323.858L37.8999 321C34.6988 321.32 31.5074 322.059 28.3399 323.215C18.7035 326.922 14 335.093 14 348.176C14 374.927 25.0561 397.731 39.874 418.836C48.2342 430.737 57.7941 442.11 67.2441 453.345C86.0007 475.644 103.935 496.955 110.426 520L111 516.993Z" fill="#FD8033"/>
<rect x="19" y="440" width="9" height="9" fill="#FD8033"/>
<rect x="36" y="353" width="9" height="9" fill="#FD8033"/>
<rect x="141" y="152" width="9" height="9" fill="#FD8033"/>
<rect x="10" y="49" width="9" height="9" fill="#FD8033"/>
<rect x="102" y="228" width="9" height="9" fill="#FE5854"/>
<rect x="71" y="431" width="9" height="9" fill="#2D285C"/>
<rect x="111" y="583" width="9" height="9" fill="#2D285C"/>
<rect x="99" y="276" width="9" height="9" fill="#2D285C"/>
<rect x="132" y="127" width="9" height="9" fill="#2D285C"/>
<rect x="24" width="9" height="9" fill="#2D285C"/>
<rect x="34" y="77" width="9" height="9" fill="#FE5854"/>
<rect x="54" y="335" width="9" height="9" fill="#FE5854"/>
<rect x="132" y="564" width="9" height="9" fill="#FE5854"/>
<defs>
<linearGradient id="paint0_linear" x1="24.5" y1="607.5" x2="155" y2="467" gradientUnits="userSpaceOnUse">
<stop stop-color="#FE5854"/>
<stop offset="1" stop-color="#FFBE4D"/>
</linearGradient>
</defs>
</svg>
