<svg width="557" height="156" viewBox="0 0 557 156" fill="none" xmlns="http://www.w3.org/2000/svg">
<rect width="12.8915" height="15.9223" transform="matrix(0.968217 0.250112 -0.261282 0.965262 450.381 125.607)" fill="url(#paint0_linear)"/>
<rect x="1.41387" y="2.43075" width="152.31" height="92.0305" rx="8" transform="matrix(0.968217 0.250112 -0.261282 0.965262 405.771 17.7308)" stroke="url(#paint1_linear)" stroke-width="4"/>
<rect width="56.4004" height="10.4033" rx="5" transform="matrix(0.968217 0.250112 -0.261282 0.965262 426.413 130.9)" fill="url(#paint2_linear)"/>
<path d="M209.457 85.9636C228.825 109.545 247.059 131.828 273.525 136.268C280.553 137.455 287.872 137.345 295.9 135.932L297.496 136.711C288.83 138.233 280.483 138.338 272.66 137.02C244.948 132.348 227.311 110.888 206.926 86.0423C179.523 52.6586 148.448 14.8221 85.6498 14.3607C49.5481 14.0949 29.9359 23.829 23.9443 44.9966C22.8223 48.953 22.2258 53.0555 21.904 57.2135L19.2127 57.2781C19.4984 53.0203 20.1442 48.8203 21.2942 44.765C25.1397 31.1708 35.9522 13.1422 85.2041 13.5043C150.347 13.9551 181.747 52.2199 209.457 85.9636Z" fill="#FD8033"/>
<rect x="133" width="9" height="9" fill="#FD8033"/>
<rect x="187" y="109" width="9" height="9" fill="#FD8033"/>
<rect x="75" y="38" width="9" height="9" fill="#FE5854"/>
<rect x="240" y="100" width="9" height="9" fill="#FE5854"/>
<rect y="33" width="9" height="9" fill="#FD8033"/>
<rect x="53" y="47" width="9" height="9" fill="#2D285C"/>
<rect x="316" y="143" width="9" height="9" fill="#2D285C"/>
<rect x="258" y="118" width="9" height="9" fill="#2D285C"/>
<rect x="212" y="51" width="9" height="9" fill="#2D285C"/>
<path d="M477.831 120.864L466.31 113.33C476.596 98.0504 478.337 90.598 479.335 83.7015C479.49 82.6435 479.551 81.5736 479.517 80.5039C479.546 71.8856 475.356 66.6731 468.687 64.4719C463.836 62.8644 459.686 63.1589 456.204 64.2916L458.053 55.2147C462.314 53.901 466.893 53.6675 471.432 54.5921C478.351 56.0017 484.337 59.7761 488.284 65.2185C492.464 70.977 494.087 78.0622 492.989 85.7007C491.557 95.6379 488.519 104.986 477.831 120.864Z" fill="#2D285C"/>
<path d="M476.795 96.6279C475.551 99.4815 473.885 102.727 471.598 106.538C468.533 106.973 465.412 106.877 462.376 106.255C447.833 103.292 438.386 89.1707 441.318 74.778L447.384 45L460.837 47.7407L454.77 77.524C454.546 78.6252 454.466 79.7512 454.532 80.8739L454.527 80.8728C454.798 88.2141 458.889 94.2385 465.018 96.2732C469.553 97.7801 473.462 97.6047 476.795 96.6279Z" fill="#2D285C"/>
<path d="M476.319 96.7013C473.008 97.7026 469.13 97.8971 464.637 96.392C458.563 94.3587 454.528 88.2829 454.29 80.8602C454.611 86.6969 458.784 91.8159 464.719 93.0248C471.748 94.4568 478.641 89.878 480.143 82.804C480.137 82.8863 480.125 82.9729 480.114 83.0541C479.543 86.9839 478.734 91.0933 476.319 96.7013Z" fill="#2D285C"/>
<path d="M480.191 79.9557C480.1 77.1118 479.29 74.5621 477.791 72.4613C475.905 69.8315 472.971 67.9987 469.519 67.2954C462.444 65.8542 455.754 70.3512 454.29 77.5375L457.102 63.736C460.56 62.5896 464.678 62.2833 469.487 63.8852C476.098 66.0811 480.242 71.3026 480.191 79.9557Z" fill="#2D285C"/>
<path d="M481.831 118.864L470.31 111.33C480.596 96.0504 482.337 88.598 483.335 81.7015C483.49 80.6435 483.551 79.5736 483.517 78.5039C483.546 69.8856 479.356 64.6731 472.687 62.4719C467.836 60.8644 463.686 61.1589 460.204 62.2916L462.053 53.2147C466.314 51.901 470.893 51.6675 475.432 52.5921C482.351 54.0017 488.337 57.7761 492.284 63.2185C496.464 68.977 498.087 76.0622 496.989 83.7007C495.557 93.6379 492.519 102.986 481.831 118.864Z" fill="#FD8033"/>
<path d="M480.795 94.6279C479.551 97.4815 477.885 100.727 475.598 104.538C472.533 104.973 469.412 104.877 466.376 104.255C451.833 101.292 442.386 87.1707 445.318 72.778L451.384 43L464.837 45.7407L458.77 75.524C458.546 76.6252 458.466 77.7512 458.532 78.8739L458.527 78.8728C458.798 86.2141 462.889 92.2385 469.018 94.2732C473.553 95.7801 477.462 95.6047 480.795 94.6279Z" fill="#FD8033"/>
<path d="M480.319 94.7013C477.008 95.7026 473.13 95.8971 468.637 94.392C462.563 92.3587 458.528 86.2829 458.29 78.8602C458.611 84.6969 462.784 89.8159 468.719 91.0248C475.748 92.4568 482.641 87.878 484.143 80.804C484.137 80.8863 484.125 80.9729 484.114 81.0541C483.543 84.9839 482.734 89.0933 480.319 94.7013Z" fill="#FD8033"/>
<path d="M484.191 77.9557C484.1 75.1118 483.29 72.5621 481.791 70.4613C479.905 67.8315 476.971 65.9987 473.519 65.2954C466.444 63.8542 459.754 68.3512 458.29 75.5375L461.102 61.736C464.56 60.5896 468.678 60.2833 473.487 61.8852C480.098 64.0811 484.242 69.3026 484.191 77.9557Z" fill="#FD8033"/>
<defs>
<linearGradient id="paint0_linear" x1="7.21078" y1="35.8341" x2="14.7729" y2="-14.8652" gradientUnits="userSpaceOnUse">
<stop stop-color="#FE5854"/>
<stop offset="1" stop-color="#FFBE4D"/>
</linearGradient>
<linearGradient id="paint1_linear" x1="74.7152" y1="124.125" x2="118.113" y2="-60.1959" gradientUnits="userSpaceOnUse">
<stop stop-color="#FE5854"/>
<stop offset="1" stop-color="#FFBE4D"/>
</linearGradient>
<linearGradient id="paint2_linear" x1="30.1299" y1="34.7719" x2="42.2381" y2="-37.0836" gradientUnits="userSpaceOnUse">
<stop stop-color="#FE5854"/>
<stop offset="1" stop-color="#FFBE4D"/>
</linearGradient>
</defs>
</svg>
