<svg width="71" height="81" viewBox="0 0 71 81" fill="none" xmlns="http://www.w3.org/2000/svg">
<rect width="62" height="80.6984" fill="#FD8033"/>
<path d="M41.7399 40.76C42.6999 38.84 43.7199 36.82 44.7999 34.7C45.8799 32.54 47.2199 29.98 48.8199 27.02C50.4599 24.02 52.1799 21.7 53.9799 20.06C55.8199 18.42 58.2999 17.6 61.4199 17.6C63.8199 17.6 65.8599 18.36 67.5399 19.88C69.2599 21.36 70.1199 23.28 70.1199 25.64C70.1199 28.04 69.3599 30.02 67.8399 31.58C66.3199 33.14 64.3599 33.92 61.9599 33.92C59.8399 33.92 57.9999 33.28 56.4399 32C54.8799 30.72 54.0999 29.06 54.0999 27.02C54.0999 26.26 54.1599 25.68 54.2799 25.28C54.3999 24.88 54.5799 24.44 54.8199 23.96C55.0599 23.44 55.3999 22.9 55.8399 22.34C56.2799 21.74 56.4999 21.22 56.4999 20.78C56.4999 20.5 56.3199 20.36 55.9599 20.36C55.4799 20.36 54.8799 20.7 54.1599 21.38C53.4399 22.06 52.5999 23.14 51.6399 24.62C50.6799 26.1 49.3799 28.44 47.7399 31.64C46.1399 34.84 44.8399 37.44 43.8399 39.44C42.8799 41.44 42.1599 42.96 41.6799 44L37.4799 54.5C36.4799 57.14 35.9799 58.78 35.9799 59.42C35.9799 60.06 36.4199 60.5 37.2999 60.74C38.2199 60.94 39.7599 61.04 41.9199 61.04V62H13.4199V61.04L16.7199 60.8C18.1999 60.64 19.2799 60.18 19.9599 59.42C20.6799 58.62 21.5599 57 22.5999 54.56C23.6799 52.12 24.6199 49.92 25.4199 47.96C26.2199 45.96 26.9799 44.04 27.6999 42.2C27.3799 41.16 26.8799 39.62 26.1999 37.58C25.5599 35.5 24.9199 33.54 24.2799 31.7C23.6399 29.82 22.8799 27.72 21.9999 25.4C21.1599 23.04 20.5399 21.52 20.1399 20.84C19.7399 20.16 19.0999 19.74 18.2199 19.58C17.3799 19.42 16.6799 19.34 16.1199 19.34C15.5599 19.3 15.0399 19.26 14.5599 19.22V18.26H42.5799V19.22C40.2199 19.42 38.5599 19.62 37.5999 19.82C36.6799 19.98 36.2199 20.8 36.2199 22.28C36.2199 22.96 36.3999 23.92 36.7599 25.16C37.1199 26.4 37.3799 27.32 37.5399 27.92L41.4999 40.76H41.7399Z" fill="white"/>
</svg>
