<svg width="72" height="82" viewBox="0 0 72 82" fill="none" xmlns="http://www.w3.org/2000/svg">
<rect width="62" height="82" fill="#FD8033"/>
<path d="M24.3599 17.26H71.7599V36.52H70.7399C69.6599 34.08 68.3599 31.5 66.8399 28.78C65.3599 26.02 63.7999 23.62 62.1599 21.58C60.5199 19.54 59.0799 18.52 57.8399 18.52L55.4399 18.4V53.38L55.5599 56.14C55.6799 57.42 55.9399 58.32 56.3399 58.84C56.7799 59.32 57.4399 59.62 58.3199 59.74C59.1999 59.82 59.9999 59.88 60.7199 59.92C61.4399 59.96 62.0799 60 62.6399 60.04V61H33.2999V60.04L37.2599 59.86C38.4599 59.74 39.2799 59.44 39.7199 58.96C40.1599 58.48 40.4399 57.58 40.5599 56.26L40.6799 53.5V18.4L38.3399 18.52C37.0599 18.52 35.6399 19.48 34.0799 21.4C32.5199 23.28 30.9399 25.68 29.3399 28.6C27.7799 31.48 26.4599 34.12 25.3799 36.52H24.3599V17.26Z" fill="white"/>
</svg>
