<svg width="69" height="82" viewBox="0 0 69 82" fill="none" xmlns="http://www.w3.org/2000/svg">
<rect width="62" height="82" fill="#FD8033"/>
<path d="M46.6799 37.24C48.3599 36.92 49.4799 35.94 50.0399 34.3C50.5999 32.66 50.8799 30.5799 50.8799 28.0599C50.8799 26.0199 50.4999 24.06 49.7399 22.18C49.0199 20.2599 48.0999 19.16 46.9799 18.88C45.8999 18.6 44.8799 18.4399 43.9199 18.4C42.9999 18.36 42.1799 18.32 41.4599 18.28V37.66C42.2199 37.66 42.9799 37.66 43.7399 37.66C44.5399 37.62 45.5199 37.48 46.6799 37.24ZM48.8399 61.06L19.4999 61V60.04H21.3599C22.1999 59.92 23.0199 59.82 23.8199 59.74C24.6199 59.62 25.2399 59.32 25.6799 58.84C26.1599 58.32 26.4599 57.42 26.5799 56.14L26.6999 53.38V24.94L26.5799 22.18C26.4599 20.9 26.1599 20 25.6799 19.4799C25.1999 18.9599 24.5199 18.64 23.6399 18.52C22.7999 18.4 22.0199 18.34 21.2999 18.34C20.6199 18.3 19.9999 18.26 19.4399 18.2199V17.26L47.1599 17.2C50.9199 17.2 53.8599 17.34 55.9799 17.6199C58.0999 17.9 59.8599 18.52 61.2599 19.4799C62.6999 20.4399 63.8199 21.6399 64.6199 23.08C65.4199 24.48 65.8199 26.16 65.8199 28.1199C65.8199 31.0399 64.9599 33.14 63.2399 34.42C61.5599 35.7 59.8599 36.56 58.1399 37C56.4599 37.4 54.3799 37.6 51.8999 37.6V38.08C54.8199 38.08 56.9999 38.2 58.4399 38.44C59.9199 38.64 61.3799 39.04 62.8199 39.64C64.2999 40.24 65.5999 41.38 66.7199 43.0599C67.8399 44.7 68.3999 46.82 68.3999 49.42C68.3999 51.94 67.8199 54.04 66.6599 55.72C65.4999 57.4 64.0199 58.66 62.2199 59.5C60.4199 60.3 58.2199 60.76 55.6199 60.88C53.0199 61 50.7599 61.06 48.8399 61.06ZM48.8999 59.32C50.2199 59 51.1599 57.74 51.7199 55.54C52.3199 53.34 52.6199 51.04 52.6199 48.64C52.6199 46.48 52.1599 44.38 51.2399 42.34C50.3599 40.26 49.2799 39.14 47.9999 38.98C46.7199 38.82 45.7199 38.74 44.9999 38.74C44.3199 38.7 43.7999 38.68 43.4399 38.68H41.4599V59.92H42.1799C43.6199 59.92 44.8199 59.9 45.7799 59.86C46.7399 59.78 47.7799 59.6 48.8999 59.32Z" fill="white"/>
</svg>
