<svg width="70" height="82" viewBox="0 0 70 82" fill="none" xmlns="http://www.w3.org/2000/svg">
<rect width="62" height="82" fill="#FD8033"/>
<path d="M44.4599 60.8C46.1399 60.76 47.8599 60.74 49.6199 60.74C51.3799 60.7 53.2399 60.56 55.1999 60.32C57.1599 60.04 59.5799 58.06 62.4599 54.38C65.3399 50.66 67.4599 46.84 68.8199 42.92H69.7799V62H22.6199V61.04C23.1399 61.04 23.7399 61.02 24.4199 60.98C25.0999 60.9 25.8599 60.82 26.6999 60.74C27.5799 60.62 28.2399 60.32 28.6799 59.84C29.1599 59.32 29.4599 58.42 29.5799 57.14L29.6999 54.38V25.94L29.5799 23.18C29.4599 21.9 29.1599 21 28.6799 20.48C28.1999 19.96 27.5199 19.64 26.6399 19.52C25.7999 19.4 25.0199 19.34 24.2999 19.34C23.6199 19.3 22.9999 19.26 22.4399 19.22V18.26H68.5799V36.02H67.6199C65.5799 31.54 63.0999 27.78 60.1799 24.74C57.2599 21.66 54.7999 20.02 52.7999 19.82C50.8399 19.62 49.1799 19.5 47.8199 19.46C46.4599 19.42 45.5599 19.4 45.1199 19.4H44.5799L44.4599 39.08L46.9799 38.96C49.2999 38.72 51.0399 37.64 52.1999 35.72C53.3999 33.76 53.9999 31.46 53.9999 28.82H55.1399V50.66H53.9999C53.9999 47.98 53.3999 45.64 52.1999 43.64C51.0399 41.64 49.2999 40.52 46.9799 40.28L44.4599 40.16V60.8Z" fill="white"/>
</svg>
