<svg width="73" height="82" viewBox="0 0 73 82" fill="none" xmlns="http://www.w3.org/2000/svg">
<rect width="62" height="82" fill="#FD8033"/>
<path d="M72.26 49.16C72.26 53.12 70.58 56.38 67.22 58.94C63.9 61.46 60.28 62.72 56.36 62.72C52.92 62.72 49.52 61.64 46.16 59.48C42.8 57.28 40.86 56.18 40.34 56.18C39.02 56.18 38.2 56.68 37.88 57.68C37.56 58.68 37.26 60.36 36.98 62.72H35.96V41.24H36.98C37.22 42.08 37.62 43.46 38.18 45.38C38.78 47.3 39.86 49.6 41.42 52.28C43.02 54.92 45.1 57.12 47.66 58.88C50.26 60.64 53.26 61.52 56.66 61.52C58.62 61.52 60.22 61 61.46 59.96C62.7 58.92 63.32 57.68 63.32 56.24C63.32 54.52 62.86 53.16 61.94 52.16C61.02 51.16 59.36 50.2 56.96 49.28C54.56 48.32 52.02 47.3 49.34 46.22C46.66 45.14 43.82 43.68 40.82 41.84C37.82 40.04 36.32 36.64 36.32 31.64C36.32 27.72 37.9 24.4 41.06 21.68C44.22 18.96 47.86 17.6 51.98 17.6C54.26 17.6 56.48 18.14 58.64 19.22L64.88 22.7C66.04 22.7 66.8 22.22 67.16 21.26C67.52 20.26 67.7 19.04 67.7 17.6H68.84V33.5H67.76C67.56 32.82 67.14 31.66 66.5 30.02C65.9 28.38 64.7 26.54 62.9 24.5C61.14 22.46 59.38 21 57.62 20.12C55.9 19.2 53.82 18.74 51.38 18.74C49.74 18.74 48.22 19.22 46.82 20.18C45.42 21.14 44.72 22.34 44.72 23.78C44.72 25.3 45.24 26.58 46.28 27.62C47.36 28.62 48.58 29.42 49.94 30.02C51.34 30.62 53.26 31.38 55.7 32.3C58.14 33.22 60.66 34.3 63.26 35.54C65.9 36.74 68.06 38.52 69.74 40.88C71.42 43.2 72.26 45.96 72.26 49.16Z" fill="white"/>
</svg>
