<svg width="683" height="224" viewBox="0 0 683 224" fill="none" xmlns="http://www.w3.org/2000/svg">
<path fill-rule="evenodd" clip-rule="evenodd" d="M245.262 6.08455V12.1696L233.78 35.1558L222.297 58.1425V67.7183V77.2941L216.322 77.4253L210.346 77.5565L210.226 110.031L210.105 142.505L207.179 142.366L204.254 142.226L204.12 137.188L203.987 132.151H181.741H159.496V144.803V157.456H156.684H153.871V118.795V80.1339H152.231H150.591L150.588 77.6736C150.585 75.2518 150.466 75.0452 142.988 64.4351C135.584 53.932 135.384 53.5852 135.141 50.8452L134.89 48.0335L131.961 47.8938L129.032 47.7546V50.4933V53.2314L120.849 63.9881L112.667 74.7448L112.648 78.8452C112.637 81.1007 112.429 82.9456 112.186 82.9456C111.942 82.9456 110.782 81.7666 109.608 80.3251L107.473 77.705V73.5301V69.3557H101.632H95.7901L95.6561 73.9059L95.5221 78.4562L91.1869 80.3078L86.8517 82.1593V84.8693C86.8517 87.0577 86.6342 87.8324 85.7217 88.8933L84.5917 90.2069L82.7925 89.1815C81.11 88.2223 80.9839 87.9978 80.8489 85.7137C80.7168 83.4728 80.4759 83.0178 77.9197 80.1864L75.1349 77.101V73.6969V70.2929H69.2765H63.4182L63.4153 74.159L63.4121 78.0251L59.7832 80.1897L56.1538 82.3542L56.016 85.1102C55.8876 87.6735 55.7648 87.9402 54.2585 88.9247L52.6387 89.9833V120.908V151.833H36.2353H19.8318V136.368V120.904H-15.0841H-50V172.452V224H316.5H683V212.779V201.558L680.774 201.415L678.548 201.272L678.425 184.285L678.302 167.297H659.109H639.915L639.782 162.494L639.648 157.69L626.642 157.566L613.637 157.441V140.813V124.184H610.356H607.075V119.732V115.28H604.966H602.857V111.766V108.251H598.171H593.484V105.439V102.628H591.375H589.266V98.1757V93.7239H585.751H582.236V89.272C582.236 84.8355 582.232 84.8201 581.064 84.8201C579.926 84.8201 579.893 84.7264 579.893 81.5398V78.2594H578.252H576.612V72.6032C576.612 67.006 576.601 66.9488 575.557 67.0969C574.541 67.2412 574.498 67.4456 574.371 72.7531L574.239 78.2594H573.082C571.962 78.2594 571.925 78.3644 571.925 81.5398V84.8201H570.537H569.148L569.014 89.1548L568.879 93.4895L563.958 93.6175L559.037 93.7454L555.405 91.6146C551.841 89.5236 551.772 89.4482 551.772 87.6206V85.7573H548.753H545.734L545.589 87.6721L545.445 89.5869L539.118 93.0223L532.791 96.4573L532.652 99.5422L532.514 102.628H530.426H528.339V105.205V107.782H526.464H524.59V111.766C524.59 114.994 524.456 115.749 523.887 115.749C523.287 115.749 523.183 117.03 523.183 124.462C523.183 132.781 523.141 133.187 522.246 133.421C521.324 133.662 521.309 134.06 521.309 158.214V182.762H517.801H514.293L514.169 169.054L514.044 155.347L494.946 155.225L475.848 155.103V159.325V163.548H473.504H471.161V161.674V159.799H465.537H459.913V177.607V195.414H456.632H453.352V143.866V92.318H451.711H450.071V80.6025V68.887H418.934H387.797L387.65 67.364L387.504 65.841L382.934 65.707L378.364 65.573V79.8827V94.1925H376.962H375.559L375.439 125.707L375.318 157.222L371.686 157.359L368.054 157.495V161.225V164.954H363.836H359.618V161.205V157.456H355.868H352.119V152.536V147.615H350.713H349.307V115.28V82.9456H321.421H293.535V101.456V119.967H284.396H275.257L275.246 113.523L275.235 107.08L272.903 103.1L270.57 99.1205V76.7003V54.2802L259.557 32.5939L248.543 10.9076V5.45379V0H246.902H245.262V6.08455Z" fill="#2D285C"/>
</svg>
