<svg width="502" height="225" viewBox="0 0 502 225" fill="none" xmlns="http://www.w3.org/2000/svg">
<path fill-rule="evenodd" clip-rule="evenodd" d="M331 194C356.061 194 378.902 184.496 396.116 168.896C402.383 171.539 409.271 173 416.5 173C431.137 173 444.375 167.01 453.896 157.348C458.422 159.682 463.557 161 469 161C487.225 161 502 146.225 502 128C502 109.775 487.225 95 469 95C466.856 95 464.759 95.2045 462.728 95.5952C454.949 81.1851 440.628 70.8261 423.744 68.4957C411.569 28.8345 374.652 0 331 0C293.184 0 260.422 21.6404 244.422 53.213C241.077 52.4198 237.588 52 234 52C221.727 52 210.601 56.9134 202.483 64.8806C186.524 45.9939 162.663 34 136 34C106.715 34 80.8092 48.4694 65.0423 70.6491C60.8745 69.5727 56.5041 69 52 69C23.2812 69 0 92.2812 0 121C0 149.719 23.2812 173 52 173C56.5041 173 60.8745 172.427 65.0423 171.351C80.8092 193.531 106.715 208 136 208C151.918 208 166.837 203.725 179.672 196.261C188.343 213.316 206.057 225 226.5 225C253.408 225 275.588 204.757 278.641 178.669C293.745 188.372 311.715 194 331 194Z" fill="url(#paint0_linear)"/>
<defs>
<linearGradient id="paint0_linear" x1="-2.43095e-05" y1="112.733" x2="502" y2="112.733" gradientUnits="userSpaceOnUse">
<stop stop-color="#FE5854"/>
<stop offset="1" stop-color="#FFBE4D"/>
</linearGradient>
</defs>
</svg>
