<svg width="351" height="228" viewBox="0 0 351 228" fill="none" xmlns="http://www.w3.org/2000/svg">
<path fill-rule="evenodd" clip-rule="evenodd" d="M62 92C62 96.3747 62.3053 100.678 62.8959 104.89C55.9997 110.541 50.4527 117.778 46.8117 126.043C43.1217 124.721 39.145 124 35 124C15.67 124 0 139.67 0 159C0 178.33 15.67 194 35 194C43.0181 194 50.4065 191.304 56.308 186.769C66.751 198.564 82.0071 206 99 206C111.986 206 123.958 201.657 133.542 194.345C147.939 214.706 171.667 228 198.5 228C229.849 228 256.959 209.856 269.903 183.496C272.722 183.829 275.591 184 278.5 184C318.541 184 351 151.541 351 111.5C351 71.4594 318.541 39 278.5 39C263.031 39 248.693 43.8449 236.921 52.1002C222.06 21.2723 190.514 0 154 0C103.19 0 62 41.1898 62 92Z" fill="url(#paint0_linear)"/>
<defs>
<linearGradient id="paint0_linear" x1="-1.69973e-05" y1="114.236" x2="351" y2="114.236" gradientUnits="userSpaceOnUse">
<stop stop-color="#FE5854"/>
<stop offset="1" stop-color="#FFBE4D"/>
</linearGradient>
</defs>
</svg>
