<svg width="351" height="193" viewBox="0 0 351 193" fill="none" xmlns="http://www.w3.org/2000/svg">
<path fill-rule="evenodd" clip-rule="evenodd" d="M244.438 37.9163C249.432 36.0314 254.846 35 260.5 35C282.724 35 301.227 50.9339 305.208 72.0009C305.305 72.0003 305.402 72 305.5 72C330.629 72 351 92.371 351 117.5C351 142.629 330.629 163 305.5 163C297.7 163 290.359 161.038 283.943 157.579C282.864 177.323 266.513 193 246.5 193C229.875 193 215.777 182.182 210.862 167.201C204.735 170.272 197.819 172 190.5 172C184.589 172 178.941 170.873 173.759 168.821C161.275 181.29 144.038 189 125 189C102.871 189 83.1751 178.583 70.5486 162.385C63.8259 165.969 56.1502 168 48 168C21.4903 168 0 146.51 0 120C0 93.7403 21.0869 72.4058 47.2514 72.0057C49.7534 47.2896 70.6241 28 96 28C104.618 28 112.716 30.2247 119.752 34.1311C132.445 13.6451 155.129 0 181 0C208.434 0 232.284 15.3431 244.438 37.9163ZM235.41 119.156C235.538 119.009 235.665 118.861 235.791 118.713C236.094 118.909 236.4 119.102 236.708 119.291C236.298 119.402 235.891 119.519 235.487 119.643C235.462 119.481 235.437 119.318 235.41 119.156Z" fill="url(#paint0_linear)"/>
<defs>
<linearGradient id="paint0_linear" x1="-1.69973e-05" y1="96.6998" x2="351" y2="96.6998" gradientUnits="userSpaceOnUse">
<stop stop-color="#FE5854"/>
<stop offset="1" stop-color="#FFBE4D"/>
</linearGradient>
</defs>
</svg>
