<svg width="234" height="231" viewBox="0 0 234 231" fill="none" xmlns="http://www.w3.org/2000/svg">
<path fill-rule="evenodd" clip-rule="evenodd" d="M116.139 230.084C179.675 230.084 231.181 178.578 231.181 115.042C231.181 51.506 179.675 0 116.139 0C52.6029 0 1.09692 51.506 1.09692 115.042C1.09692 178.578 52.6029 230.084 116.139 230.084ZM115.691 138.766C129.535 138.766 140.759 127.543 140.759 113.699C140.759 99.8546 129.535 88.6315 115.691 88.6315C101.847 88.6315 90.6236 99.8546 90.6236 113.699C90.6236 127.543 101.847 138.766 115.691 138.766Z" fill="#D79B63"/>
<path d="M58.3633 55.663C73.3529 15.4846 101.469 24.1655 113.653 33.5283C163.142 23.6447 148.36 64.4191 172.796 62.1437C197.231 59.8682 230.12 98.745 195.739 130.056C161.357 161.368 186.448 157.228 171.857 187.222C157.265 217.217 119.067 204.69 116.513 198.99C114.469 194.43 78.2749 178.975 60.4332 171.818C43.443 166.56 10.5427 149.181 14.8631 121.721C20.2637 87.3957 39.6263 105.886 58.3633 55.663Z" fill="#FFC8C8"/>
<circle cx="113.453" cy="115.937" r="59.5353" fill="#FFC8C8"/>
<rect x="164.507" y="110.796" width="5.3716" height="17.9053" rx="2.6858" transform="rotate(-157.08 164.507 110.796)" fill="#2D285C"/>
<circle cx="113.9" cy="116.385" r="17.9053" fill="#FFBE4D"/>
<rect x="81.0474" y="52.657" width="5.3716" height="17.9053" rx="2.6858" transform="rotate(29.446 81.0474 52.657)" fill="#FE5854"/>
<rect x="29.8508" y="123.775" width="5.3716" height="17.9053" rx="2.6858" transform="rotate(-14.5172 29.8508 123.775)" fill="#FE5854"/>
<rect x="144.189" y="63.564" width="5.3716" height="17.9053" rx="2.6858" transform="rotate(29.446 144.189 63.564)" fill="#FE5854"/>
<rect x="180.508" y="68.0759" width="5.3716" height="17.9053" rx="2.6858" transform="rotate(79.7169 180.508 68.0759)" fill="#FE5854"/>
<rect x="77.7861" y="89.5267" width="5.3716" height="17.9053" rx="2.6858" transform="rotate(79.4281 77.7861 89.5267)" fill="#FD8033"/>
<rect x="99.2725" y="32.2296" width="5.3716" height="17.9053" rx="2.6858" transform="rotate(79.4281 99.2725 32.2296)" fill="#FD8033"/>
<rect x="125.235" y="143.243" width="5.3716" height="17.9053" rx="2.6858" transform="rotate(79.4281 125.235 143.243)" fill="#FD8033"/>
<rect x="71.896" y="129.494" width="5.3716" height="17.9053" rx="2.6858" transform="rotate(128.391 71.896 129.494)" fill="#2D285C"/>
<rect x="159.919" y="157.944" width="5.3716" height="17.9053" rx="2.6858" transform="rotate(128.391 159.919 157.944)" fill="#2D285C"/>
<rect x="103.494" y="185.044" width="5.3716" height="17.9053" rx="2.6858" transform="rotate(-136.83 103.494 185.044)" fill="#2D285C"/>
<rect x="102.311" y="59.3247" width="5.3716" height="17.9053" rx="2.6858" transform="rotate(-56.1372 102.311 59.3247)" fill="#FD8033"/>
<rect x="140.614" y="179.481" width="5.3716" height="17.9053" rx="2.6858" transform="rotate(-6.64024 140.614 179.481)" fill="#FD8033"/>
<rect x="183.731" y="96.673" width="5.3716" height="17.9053" rx="2.6858" transform="rotate(-56.1372 183.731 96.673)" fill="#FD8033"/>
<rect x="87.9258" y="162.359" width="5.3716" height="17.9053" rx="2.6858" transform="rotate(-176.219 87.9258 162.359)" fill="#FE5854"/>
<circle cx="115.5" cy="114.5" r="34.5" fill="#FFBE4D"/>
</svg>
