<svg width="718" height="123" viewBox="0 0 718 123" fill="none" xmlns="http://www.w3.org/2000/svg">
<rect x="160" width="398" height="103.618" fill="#FE5854"/>
<rect y="34.2909" width="160" height="88.7091" fill="#FB3552"/>
<rect x="558" y="34.2909" width="160" height="88.7091" fill="#FB3552"/>
<path d="M160 123V103.618H187.5L160 123Z" fill="#474370"/>
<path d="M558 123V103.618H530L558 123Z" fill="#474370"/>
<g filter="url(#filter0_d)">
<path d="M223.9 47.65C226.167 48.6167 227.85 49.8834 228.95 51.45C230.083 53.0167 230.65 54.7334 230.65 56.6C230.65 59.8 229.5 62.3334 227.2 64.2C224.933 66.0667 221.75 67 217.65 67H204.2V32H217.2C220.433 32 223.033 32.7834 225 34.35C226.967 35.9167 227.95 38.2167 227.95 41.25C227.95 44.2834 226.6 46.4167 223.9 47.65ZM210.7 45.5H217.2C218.567 45.5 219.633 45.1667 220.4 44.5C221.167 43.8 221.55 42.8 221.55 41.5C221.55 40.2334 221.15 39.2667 220.35 38.6C219.583 37.9 218.533 37.55 217.2 37.55H210.7V45.5ZM218.35 61.45C220.317 61.45 221.783 60.9834 222.75 60.05C223.75 59.0834 224.25 57.8334 224.25 56.3C224.25 54.8334 223.75 53.6 222.75 52.6C221.75 51.5667 220.283 51.05 218.35 51.05H210.7V61.45H218.35Z" fill="white"/>
<path d="M242.585 32V37.75H236.085V32H242.585ZM242.585 41V67H236.085V41H242.585Z" fill="white"/>
<path d="M262.177 46.2H256.677V59.3C256.677 60.9667 257.377 61.8 258.777 61.8C259.977 61.8 261.11 61.5834 262.177 61.15V66.4C260.977 67 259.327 67.3 257.227 67.3C255.06 67.3 253.36 66.75 252.127 65.65C250.893 64.5167 250.277 62.4334 250.277 59.4V46.2H247.577V41H250.277V36.5H256.677V41H262.177V46.2Z" fill="white"/>
<path d="M293.98 31.65C296.78 31.65 299.18 32.3167 301.18 33.65C303.213 34.9834 304.713 36.6167 305.68 38.55L299.93 40.55C298.93 38.4167 297.03 37.35 294.23 37.35C292.83 37.35 291.663 37.6667 290.73 38.3C289.83 38.9334 289.38 39.7667 289.38 40.8C289.38 41.8 289.696 42.65 290.33 43.35C290.996 44.05 292.18 44.6667 293.88 45.2L295.73 45.85C299.463 47.1167 302.18 48.6834 303.88 50.55C305.613 52.3834 306.48 54.5834 306.48 57.15C306.48 59.35 305.796 61.25 304.43 62.85C303.096 64.45 301.496 65.6 299.63 66.3C297.796 67 295.896 67.35 293.93 67.35C290.763 67.35 288.03 66.6167 285.73 65.15C283.43 63.65 281.83 61.65 280.93 59.15L286.33 56.75C286.863 58.15 287.813 59.3167 289.18 60.25C290.546 61.1834 292.13 61.65 293.93 61.65C295.53 61.65 296.93 61.2834 298.13 60.55C299.33 59.7834 299.93 58.65 299.93 57.15C299.93 55.7834 299.496 54.7334 298.63 54C297.763 53.2334 296.23 52.4667 294.03 51.7L292.13 51.05C289.13 50.0167 286.813 48.7 285.18 47.1C283.58 45.4667 282.78 43.3667 282.78 40.8C282.78 38.1667 283.88 35.9834 286.08 34.25C288.28 32.5167 290.913 31.65 293.98 31.65Z" fill="white"/>
<path d="M324.921 46.2H319.421V59.3C319.421 60.9667 320.121 61.8 321.521 61.8C322.721 61.8 323.854 61.5834 324.921 61.15V66.4C323.721 67 322.071 67.3 319.971 67.3C317.804 67.3 316.104 66.75 314.871 65.65C313.637 64.5167 313.021 62.4334 313.021 59.4V46.2H310.321V41H313.021V36.5H319.421V41H324.921V46.2Z" fill="white"/>
<path d="M340.542 40.7C342.442 40.7 344.075 41.1167 345.442 41.95C346.808 42.7834 347.575 43.6334 347.742 44.5V41H354.142V67H347.742V63.15C347.575 64.05 346.792 64.9834 345.392 65.95C344.025 66.8834 342.408 67.35 340.542 67.35C339.142 67.35 337.742 67.0834 336.342 66.55C334.942 65.9834 333.625 65.1834 332.392 64.15C331.192 63.0834 330.208 61.6667 329.442 59.9C328.708 58.1334 328.342 56.1667 328.342 54C328.342 51.8667 328.708 49.9334 329.442 48.2C330.208 46.4667 331.192 45.0667 332.392 44C333.592 42.9334 334.892 42.1167 336.292 41.55C337.692 40.9834 339.108 40.7 340.542 40.7ZM341.542 46.2C339.742 46.2 338.158 46.9167 336.792 48.35C335.425 49.75 334.742 51.6334 334.742 54C334.742 56.4 335.425 58.3167 336.792 59.75C338.158 61.15 339.742 61.85 341.542 61.85C343.342 61.85 344.875 61.2 346.142 59.9C347.408 58.5667 348.042 56.6 348.042 54C348.042 51.3334 347.408 49.3667 346.142 48.1C344.908 46.8334 343.375 46.2 341.542 46.2Z" fill="white"/>
<path d="M375.008 40.75C377.708 40.75 380.008 41.6834 381.908 43.55C383.808 45.3834 384.758 48.2 384.758 52V67H378.358V52.4C378.358 48.3 376.775 46.25 373.608 46.25C371.641 46.25 369.975 47 368.608 48.5C367.275 49.9667 366.508 51.25 366.308 52.35V67H359.908V41H366.308V46.2C366.441 45.1334 367.308 43.9667 368.908 42.7C370.541 41.4 372.575 40.75 375.008 40.75Z" fill="white"/>
<path d="M409.223 32H415.573V67H409.173V63.15C408.973 64.05 408.19 64.9834 406.823 65.95C405.457 66.8834 403.84 67.35 401.973 67.35C400.04 67.35 398.173 66.9 396.373 66C394.573 65.0667 393.023 63.55 391.723 61.45C390.423 59.35 389.773 56.8667 389.773 54C389.773 51.8667 390.14 49.9334 390.873 48.2C391.64 46.4667 392.623 45.0667 393.823 44C395.023 42.9334 396.323 42.1167 397.723 41.55C399.123 40.9834 400.54 40.7 401.973 40.7C403.873 40.7 405.49 41.1167 406.823 41.95C408.19 42.75 408.973 43.6 409.173 44.5V41H409.223V32ZM398.223 59.75C399.59 61.15 401.173 61.85 402.973 61.85C404.773 61.85 406.307 61.2 407.573 59.9C408.84 58.5667 409.473 56.6 409.473 54C409.473 51.3334 408.84 49.3667 407.573 48.1C406.34 46.8334 404.807 46.2 402.973 46.2C401.173 46.2 399.59 46.9167 398.223 48.35C396.857 49.75 396.173 51.6334 396.173 54C396.173 56.4 396.857 58.3167 398.223 59.75Z" fill="white"/>
<path d="M427.79 32V37.75H421.29V32H427.79ZM427.79 41V67H421.29V41H427.79Z" fill="white"/>
<path d="M449.032 40.75C451.732 40.75 454.032 41.6834 455.932 43.55C457.832 45.3834 458.782 48.2 458.782 52V67H452.382V52.4C452.382 48.3 450.798 46.25 447.632 46.25C445.665 46.25 443.998 47 442.632 48.5C441.298 49.9667 440.532 51.25 440.332 52.35V67H433.932V41H440.332V46.2C440.465 45.1334 441.332 43.9667 442.932 42.7C444.565 41.4 446.598 40.75 449.032 40.75Z" fill="white"/>
<path d="M482.947 41H489.347V67C489.347 68.4667 489.063 69.8 488.497 71C487.963 72.2 487.263 73.1667 486.397 73.9C485.53 74.6667 484.53 75.3 483.397 75.8C482.297 76.3334 481.213 76.7 480.147 76.9C479.08 77.1334 478.047 77.25 477.047 77.25C474.413 77.25 471.813 76.5834 469.247 75.25V69.7C471.747 71.1 474.347 71.8 477.047 71.8C478.88 71.8 480.313 71.3334 481.347 70.4C482.413 69.4667 482.947 68.3334 482.947 67V63.15C482.78 64.05 481.997 64.9834 480.597 65.95C479.23 66.8834 477.613 67.35 475.747 67.35C474.347 67.35 472.947 67.0834 471.547 66.55C470.147 65.9834 468.83 65.1834 467.597 64.15C466.397 63.0834 465.413 61.6667 464.647 59.9C463.913 58.1334 463.547 56.1667 463.547 54C463.547 51.8667 463.913 49.9334 464.647 48.2C465.413 46.4667 466.397 45.0667 467.597 44C468.797 42.9334 470.097 42.1167 471.497 41.55C472.897 40.9834 474.313 40.7 475.747 40.7C477.647 40.7 479.28 41.1167 480.647 41.95C482.013 42.7834 482.78 43.6334 482.947 44.5V41ZM471.997 59.75C473.363 61.15 474.947 61.85 476.747 61.85C478.547 61.85 480.08 61.2 481.347 59.9C482.613 58.5667 483.247 56.6 483.247 54C483.247 51.3334 482.613 49.3667 481.347 48.1C480.113 46.8334 478.58 46.2 476.747 46.2C474.947 46.2 473.363 46.9167 471.997 48.35C470.63 49.75 469.947 51.6334 469.947 54C469.947 56.4 470.63 58.3167 471.997 59.75Z" fill="white"/>
<path d="M508.063 48.5C507.063 46.9 505.763 46.1 504.163 46.1C503.43 46.1 502.813 46.2834 502.313 46.65C501.813 47.0167 501.563 47.5 501.563 48.1C501.563 49.1667 502.33 49.9834 503.863 50.55L507.113 51.7C508.38 52.1667 509.33 52.55 509.963 52.85C510.597 53.1167 511.33 53.55 512.163 54.15C513.03 54.75 513.647 55.4834 514.013 56.35C514.413 57.2167 514.613 58.25 514.613 59.45C514.613 61.9167 513.547 63.85 511.413 65.25C509.28 66.65 506.897 67.35 504.263 67.35C501.763 67.35 499.497 66.75 497.463 65.55C495.463 64.3167 494.18 62.6167 493.613 60.45L498.963 58.8C499.43 59.8 500.147 60.5667 501.113 61.1C502.113 61.6334 503.163 61.9 504.263 61.9C505.23 61.9 506.08 61.6667 506.813 61.2C507.547 60.7334 507.913 60.1167 507.913 59.35C507.913 58.25 507.113 57.4334 505.513 56.9L502.313 55.7C499.747 54.7334 497.863 53.7 496.663 52.6C495.497 51.5 494.913 50.0167 494.913 48.15C494.913 45.9167 495.797 44.1167 497.563 42.75C499.363 41.3834 501.513 40.7 504.013 40.7C508.68 40.7 511.947 42.8167 513.813 47.05L508.063 48.5Z" fill="white"/>
</g>
<defs>
<filter id="filter0_d" x="200.2" y="31.65" width="314.413" height="49.6" filterUnits="userSpaceOnUse" color-interpolation-filters="sRGB">
<feFlood flood-opacity="0" result="BackgroundImageFix"/>
<feColorMatrix in="SourceAlpha" type="matrix" values="0 0 0 0 0 0 0 0 0 0 0 0 0 0 0 0 0 0 127 0"/>
<feOffset dx="-4" dy="4"/>
<feColorMatrix type="matrix" values="0 0 0 0 0.444131 0 0 0 0 0.391024 0 0 0 0 0.929167 0 0 0 1 0"/>
<feBlend mode="normal" in2="BackgroundImageFix" result="effect1_dropShadow"/>
<feBlend mode="normal" in="SourceGraphic" in2="effect1_dropShadow" result="shape"/>
</filter>
</defs>
</svg>
