<svg width="1037" height="643" viewBox="0 0 1037 643" fill="none" xmlns="http://www.w3.org/2000/svg">
<path d="M103.623 611.762V558.701C103.623 552.949 106.099 547.476 110.419 543.679L157.093 502.654C160.211 499.913 164.954 500.196 167.725 503.286V503.286C170.408 506.279 170.284 510.848 167.441 513.69L135.243 545.888" stroke="#FE5854" stroke-width="10"/>
<path d="M104.753 607.998H125.407C136.452 607.998 145.407 599.033 145.407 587.987V587.987C145.407 582.723 147.482 577.667 151.183 573.923L175.603 549.219C177.045 547.76 178.254 546.088 179.188 544.261L192.903 517.427C194.343 514.609 195.095 511.489 195.095 508.324V470.989C195.095 465.787 190.877 461.569 185.675 461.569V461.569C181.107 461.569 177.198 464.846 176.4 469.344L169.498 508.246" stroke="#FE5854" stroke-width="10"/>
<path d="M96.0947 611.762V558.443C96.0947 552.722 93.6445 547.274 89.3639 543.479L42.971 502.341C39.8485 499.572 35.0734 499.856 32.3011 502.975V502.975C29.6499 505.959 29.7733 510.488 32.5829 513.323L64.6479 545.67" stroke="#FE5854" stroke-width="10"/>
<path d="M94.5888 607.998H74.2739C63.2282 607.998 54.2739 598.936 54.2739 587.89V587.89C54.2739 582.664 52.228 577.601 48.5742 573.864L24.3278 549.066C22.8985 547.604 21.7018 545.932 20.7794 544.107L7.15127 517.15C5.73691 514.353 4.99999 511.262 4.99999 508.127V470.526C4.99999 465.371 9.17862 461.192 14.3332 461.192V461.192C18.8654 461.192 22.7426 464.448 23.526 468.912L30.3835 507.989" stroke="#FE5854" stroke-width="10"/>
<path d="M38.4705 455.537V425.166L57.6361 407.191H81.1295L99.0587 425.786L117.606 407.191L143.572 409.67L159.647 424.546L160.265 455.537L99.6769 516.899L38.4705 455.537Z" fill="#FE5854"/>
<rect x="94.4443" y="420.921" width="10.1038" height="10.1038" fill="#FE5854"/>
<rect x="84.3408" y="410.818" width="10.1038" height="10.1038" fill="#FE5854"/>
<rect x="104.548" y="410.818" width="10.1038" height="10.1038" fill="#FE5854"/>
<rect x="114.652" y="400.714" width="10.1038" height="10.1038" fill="#FE5854"/>
<rect x="124.756" y="400.714" width="10.1038" height="10.1038" fill="#FE5854"/>
<rect x="134.859" y="400.714" width="10.1038" height="10.1038" fill="#FE5854"/>
<rect x="144.963" y="410.818" width="10.1038" height="10.1038" fill="#FE5854"/>
<rect x="155.067" y="420.921" width="10.1038" height="10.1038" fill="#FE5854"/>
<rect x="155.067" y="431.025" width="10.1038" height="10.1038" fill="#FE5854"/>
<rect x="155.067" y="441.128" width="10.1038" height="10.1038" fill="#FE5854"/>
<rect x="155.067" y="451.233" width="10.1038" height="10.1038" fill="#FE5854"/>
<rect x="144.963" y="461.336" width="10.1038" height="10.1038" fill="#FE5854"/>
<rect x="134.859" y="471.44" width="10.1038" height="10.1038" fill="#FE5854"/>
<rect x="124.756" y="481.544" width="10.1038" height="10.1038" fill="#FE5854"/>
<rect x="114.652" y="491.648" width="10.1038" height="10.1038" fill="#FE5854"/>
<rect x="104.548" y="501.752" width="10.1038" height="10.1038" fill="#FE5854"/>
<rect x="94.4443" y="511.855" width="10.1038" height="10.1038" fill="#FE5854"/>
<rect x="84.3408" y="501.752" width="10.1038" height="10.1038" fill="#FE5854"/>
<rect x="74.2368" y="491.648" width="10.1038" height="10.1038" fill="#FE5854"/>
<rect x="64.1332" y="481.544" width="10.1038" height="10.1038" fill="#FE5854"/>
<rect x="54.0292" y="471.44" width="10.1038" height="10.1038" fill="#FE5854"/>
<rect x="43.9252" y="461.336" width="10.1038" height="10.1038" fill="#FE5854"/>
<rect x="33.8217" y="451.233" width="10.1038" height="10.1038" fill="#FE5854"/>
<rect x="33.8217" y="441.128" width="10.1038" height="10.1038" fill="#FE5854"/>
<rect x="33.8217" y="431.025" width="10.1038" height="10.1038" fill="#FE5854"/>
<rect x="33.8217" y="420.921" width="10.1038" height="10.1038" fill="#FE5854"/>
<rect x="43.9252" y="410.818" width="10.1038" height="10.1038" fill="#FE5854"/>
<rect x="54.0292" y="400.714" width="10.1038" height="10.1038" fill="#FE5854"/>
<rect x="64.1332" y="400.714" width="10.1038" height="10.1038" fill="#FE5854"/>
<rect x="74.2368" y="400.714" width="10.1038" height="10.1038" fill="#FE5854"/>
<path d="M356.789 291.904C356.789 281.073 367.917 273.812 377.83 278.174L504.128 333.742L646.534 396.397C651.978 398.793 655.493 404.179 655.493 410.127V611.793C655.493 622.624 644.366 629.885 634.452 625.523L365.749 507.3C360.304 504.904 356.789 499.518 356.789 493.57V291.904Z" stroke="#FD8033" stroke-width="10"/>
<path d="M370.86 351.342C370.86 340.73 381.578 333.473 391.431 337.414L395.924 339.212L431.508 354.476C437.02 356.841 440.594 362.263 440.594 368.261V379.352V494.697C440.594 505.329 429.84 512.586 419.981 508.608L398.927 500.112L379.831 491.73C374.38 489.337 370.86 483.948 370.86 477.995V351.342Z" stroke="#FFBE4D" stroke-width="10"/>
<path d="M520.334 387.565L520.341 387.568L614.171 429.206C619.592 431.612 623.087 436.986 623.087 442.917V452.149V576.309C623.087 587.076 612.081 594.336 602.184 590.099L525.198 557.142L525.175 557.132L469.857 533.131C464.375 530.753 460.827 525.347 460.827 519.371V384.158C460.827 373.298 472.011 366.037 481.931 370.457L520.334 387.565Z" stroke="#FFBE4D" stroke-width="10"/>
<path d="M586.046 564.05L556.444 552.037C572.708 511.793 573.217 493.71 572.29 477.265C572.155 474.741 571.8 472.234 571.23 469.773C567.31 449.796 555.403 439.701 539.265 437.745C527.522 436.31 518.251 438.952 510.877 443.219V421.326C519.938 416.271 530.208 413.566 540.924 413.566C557.265 413.566 572.58 419.485 584.043 430.228C596.178 441.593 603.129 457.239 604.171 475.449C605.518 499.144 602.942 522.232 586.046 564.05Z" fill="#FE5854"/>
<path d="M569.957 510.118C568.45 517.292 566.157 525.572 562.711 535.452C555.926 537.898 548.768 539.144 541.557 539.135C507.027 539.135 478.931 510.968 478.931 476.351V404.728H510.877V476.364C510.877 479.013 511.217 481.65 511.891 484.212H511.878C515.906 501.037 528.029 513.026 542.95 514.846C553.984 516.188 562.815 513.94 569.957 510.118Z" fill="#FE5854"/>
<path d="M569.955 510.143C562.811 513.965 553.982 516.213 542.949 514.866C528.027 513.05 515.904 501.062 511.876 484.232C515.347 497.405 527.341 507.146 541.555 507.146C558.39 507.146 572.096 493.495 572.235 476.655C572.261 476.849 572.273 477.049 572.286 477.235C572.818 486.472 572.881 496.225 569.955 510.143Z" fill="#FE5854"/>
<path d="M571.218 469.766C569.686 463.251 566.646 457.753 562.238 453.613C556.702 448.432 549.14 445.587 540.919 445.587C524.072 445.587 510.872 459.099 510.872 476.357V443.209C518.245 438.943 527.517 436.301 539.259 437.736C555.398 439.696 567.305 449.792 571.218 469.766Z" fill="#FE5854"/>
<path fill-rule="evenodd" clip-rule="evenodd" d="M376.043 271.101C364.621 266.062 351.789 274.426 351.789 286.91C351.789 293.756 355.831 299.956 362.094 302.719L506.141 366.27L646.456 428.174C653.066 431.09 660.493 426.25 660.493 419.025V409.631C660.493 401.708 655.815 394.531 648.566 391.333L506.141 328.498L376.043 271.101ZM375.667 295.365C378.964 295.365 381.636 292.692 381.636 289.395C381.636 286.099 378.964 283.426 375.667 283.426C372.37 283.426 369.697 286.099 369.697 289.395C369.697 292.692 372.37 295.365 375.667 295.365ZM398.692 297.07C398.692 300.367 396.019 303.04 392.722 303.04C389.426 303.04 386.753 300.367 386.753 297.07C386.753 293.773 389.426 291.101 392.722 291.101C396.019 291.101 398.692 293.773 398.692 297.07ZM409.778 310.715C413.074 310.715 415.747 308.042 415.747 304.745C415.747 301.448 413.074 298.776 409.778 298.776C406.481 298.776 403.808 301.448 403.808 304.745C403.808 308.042 406.481 310.715 409.778 310.715Z" fill="#FD8033"/>
<path d="M789.628 275.541V310.947L744.135 322.316C752.954 338.233 780.272 369.676 818.989 368.117C857.707 366.558 879.431 334.335 885.454 318.418L850.608 310.947V265.796C860.073 261.14 879.711 249.62 882.55 240.785C886.099 229.74 875.452 228.766 871.58 217.722C867.709 206.678 884.164 200.506 868.999 204.079C856.868 206.938 843.833 196.608 838.025 181.991C815.44 167.699 791.758 161.787 770.592 183.615C744.135 210.901 758.977 240.135 761.558 245.332C763.623 249.49 781.132 267.204 789.628 275.541Z" stroke="#FFBE4D" stroke-width="10"/>
<path d="M804.232 249.481V291.005H765.816H727.4L748.228 261.468C742.52 246.77 719.347 213.437 738.971 180.56C758.596 147.684 811.021 153.163 826.449 162.153C829.781 182.016 816.151 209.547 807.357 224.53C802.883 223.531 791.517 224.771 790.157 234.292C788.762 244.054 800.375 250.623 804.232 249.481Z" fill="#FFBE4D"/>
<rect x="185.368" y="373.751" width="18.5946" height="18.5946" fill="#FE5854"/>
<rect x="172.351" y="410.94" width="18.5946" height="18.5946" fill="#FE5854"/>
<rect x="295.076" y="385.838" width="18.5946" height="18.5946" fill="#FE5854"/>
<rect x="755.292" y="468.584" width="18.5946" height="18.5946" fill="#FB3552"/>
<rect x="896.611" y="339.352" width="18.5946" height="18.5946" fill="#FD8033"/>
<rect x="830.6" y="442.551" width="18.5946" height="18.5946" fill="#7164ED"/>
<rect x="684.632" y="155.265" width="18.5946" height="18.5946" fill="#FFBE4D"/>
<rect x="634.427" y="68.7998" width="18.5946" height="18.5946" fill="#FB3552"/>
<rect x="807.357" y="7.43799" width="18.5946" height="18.5946" fill="#FB3552"/>
<rect x="217.908" y="384.908" width="28.8216" height="28.8216" fill="#FE5854"/>
<rect x="391.768" y="403.503" width="28.8216" height="28.8216" fill="#FE5854"/>
<rect x="679.054" y="489.038" width="28.8216" height="28.8216" fill="#FFBE4D"/>
<rect x="673.476" y="49.2759" width="28.8216" height="28.8216" fill="#FD8033"/>
<rect x="755.292" y="26.0322" width="28.8216" height="28.8216" fill="#FFBE4D"/>
<rect x="896.611" y="403.503" width="28.8216" height="28.8216" fill="#7164ED"/>
<rect x="931.94" y="324.476" width="28.8216" height="28.8216" fill="#FB3552"/>
<rect x="782.254" y="427.676" width="28.8216" height="28.8216" fill="#FB3552"/>
<rect x="946.816" y="275.2" width="28.8216" height="28.8216" fill="#FFBE4D"/>
<rect x="254.168" y="332.843" width="40.9081" height="40.9081" fill="#FE5854"/>
<rect x="706.946" y="419.308" width="40.9081" height="40.9081" fill="#FD8033"/>
<rect x="653.022" y="102.271" width="40.9081" height="40.9081" fill="#7164ED"/>
<rect x="693.93" width="40.9081" height="40.9081" fill="#FB3552"/>
<rect x="839.897" y="380.259" width="40.9081" height="40.9081" fill="#FFBE4D"/>
<rect x="996.092" y="269.622" width="40.9081" height="40.9081" fill="#7164ED"/>
<rect x="911.486" y="223.135" width="40.9081" height="40.9081" fill="#FB3552"/>
<rect x="338.773" y="358.875" width="40.9081" height="40.9081" fill="#FE5854"/>
</svg>
